<svg xmlns="http://www.w3.org/2000/svg" xmlns:xlink="http://www.w3.org/1999/xlink" id="レイヤー_1" width="600" height="473" x="0" y="0" baseProfile="tiny" version="1.2" viewBox="0 0 600 473" xml:space="preserve"><metadata><?xpacket begin="﻿" id="W5M0MpCehiHzreSzNTczkc9d"?><?xpacket end="w"?></metadata><switch><g><linearGradient id="SVGID_1_" x1="376.522" x2="430.226" y1="195.066" y2="257.479" gradientUnits="userSpaceOnUse"><stop offset=".283" style="stop-color:#0092e5"/><stop offset="1" style="stop-color:#22b5ff"/></linearGradient><polygon fill="url(#SVGID_1_)" points="216.269 461.067 219.67 330.664 598.406 .688"/><linearGradient id="SVGID_2_" x1="1.455" x2="598.406" y1="235.565" y2="235.565" gradientUnits="userSpaceOnUse"><stop offset="0" style="stop-color:#07a4fd"/><stop offset="1" style="stop-color:#4bb5ff"/></linearGradient><polygon fill="url(#SVGID_2_)" points="467.187 470.442 219.67 330.664 216.269 461.067 174.312 309.119 1.455 249.292 598.406 .688"/><linearGradient id="SVGID_3_" x1="219.67" x2="598.406" y1="235.565" y2="235.565" gradientUnits="userSpaceOnUse"><stop offset="0" style="stop-color:#32a8ff"/><stop offset="1" style="stop-color:#53bdff"/></linearGradient><polygon fill="url(#SVGID_3_)" points="598.406 .688 467.187 470.442 219.67 330.664"/><linearGradient id="SVGID_4_" x1="1.455" x2="598.406" y1="154.903" y2="154.903" gradientUnits="userSpaceOnUse"><stop offset="0" style="stop-color:#07a4fd"/><stop offset="1" style="stop-color:#4bb5ff"/></linearGradient><polygon fill="url(#SVGID_4_)" points="174.312 309.119 1.455 249.292 598.406 .688"/><linearGradient id="SVGID_5_" x1="363.361" x2="437.855" y1="171.322" y2="272.204" gradientUnits="userSpaceOnUse"><stop offset="0" style="stop-color:#37a5f3"/><stop offset="0" style="stop-color:#31a5f3"/><stop offset=".02" style="stop-color:#148ff3"/><stop offset=".676" style="stop-color:#007ce9"/></linearGradient><polygon fill="url(#SVGID_5_)" points="219.67 330.664 347.709 219.11 598.406 .688 174.312 309.119 216.269 461.067"/><linearGradient id="SVGID_6_" x1="158.492" x2="169.667" y1="227.782" y2="308.796" gradientUnits="userSpaceOnUse"><stop offset="0" style="stop-color:#2481dd"/><stop offset=".016" style="stop-color:#2ca4ff"/><stop offset=".093" style="stop-color:#3cafff"/><stop offset=".482" style="stop-color:#4bb5ff"/></linearGradient><polygon fill="url(#SVGID_6_)" points="315.548 206.402 1.455 249.292 174.312 309.119"/><linearGradient id="SVGID_7_" x1="1.455" x2="598.406" y1="124.99" y2="124.99" gradientUnits="userSpaceOnUse"><stop offset="0" style="stop-color:#32a8ff"/><stop offset="1" style="stop-color:#53bdff"/></linearGradient><polygon fill="url(#SVGID_7_)" points="598.406 .688 1.455 249.292 315.548 206.402"/><linearGradient id="SVGID_8_" x1="451.971" x2="530.375" y1="107.719" y2="216.167" gradientUnits="userSpaceOnUse"><stop offset="0" style="stop-color:#37a5f3"/><stop offset="0" style="stop-color:#31a5f3"/><stop offset=".036" style="stop-color:#1e97f3"/><stop offset=".676" style="stop-color:#0068be"/></linearGradient><polygon fill="url(#SVGID_8_)" points="315.548 206.402 318.005 206.067 323.768 239.969 598.406 .688"/><linearGradient id="SVGID_9_" x1="406.67" x2="270.714" y1="345.668" y2="410.554" gradientUnits="userSpaceOnUse"><stop offset="0" style="stop-color:#2572c8"/><stop offset=".028" style="stop-color:#2ca4ff"/><stop offset=".126" style="stop-color:#3cafff"/><stop offset=".482" style="stop-color:#4bb5ff"/></linearGradient><polyline fill="url(#SVGID_9_)" points="219.67 330.664 345.067 221.411 345.067 221.411 467.187 470.442 219.67 330.664"/></g></switch></svg>