<?xml version="1.0" encoding="utf-8"?>
<!-- Generator: Adobe Illustrator 22.1.0, SVG Export Plug-In . SVG Version: 6.00 Build 0)  -->
<svg version="1.1" id="Layer_1" xmlns="http://www.w3.org/2000/svg" xmlns:xlink="http://www.w3.org/1999/xlink" x="0px" y="0px"
	 viewBox="0 0 600 250" style="enable-background:new 0 0 600 250;" xml:space="preserve">
<style type="text/css">
	.st0{fill:#CA3349;}
	.st1{fill:#F2EBAC;}
	.st2{fill:#E6CBAC;}
	.st3{fill:#656C67;}
	.st4{fill:#E4C9A2;}
	.st5{fill:#C6B299;}
	.st6{fill:#EAD498;}
	.st7{fill:#2D3136;}
	.st8{fill:#EDF6F9;}
	.st9{opacity:0.8;}
	.st10{opacity:0.75;fill:#EAD498;enable-background:new    ;}
	.st11{fill:#6D655A;}
	.st12{font-family:'ProximaNova-Regular';}
	.st13{font-size:37.9361px;}
</style>
<title>16651-Lansa-Media-300px</title>
<g id="Logo-Horizontal">
	<g>
		<g>
			<g>
				<path class="st0" d="M46.2,105.8c0,0-30.1,21.2-31.3,29.2l2.3-0.5c0,0,36-23.9,64.6-26.8l0.6-3.6L46.2,105.8z"/>
				<path class="st0" d="M93.4,102.8l-23.7,16.8l1.3,1c1-0.8,42.1-13.3,42.1-13.3l8.7-5.4C115.9,102.6,93.4,102.8,93.4,102.8z"/>
				<path class="st0" d="M114,123.1c16.8,0,42-16.5,42-16.5l-8.2-1.6c-0.4,0.4-13.1-0.4-13.1-0.4l-6-1.7l-14.5,16.5l-1.2,2.9
					C114.1,121.9,114,123.1,114,123.1z"/>
			</g>
			<path class="st0" d="M168.9,175.7l-5.2,1.5l-24-0.5l-15-11.7l-18.2,4.5l-21-1.8l-11.8,12.8l-22.1,6.6l-11-3.4
				c-0.4-0.3-0.6-0.5-0.6-0.5l4.9,12.1c0,0,11.2,12,17.5,13.4s17.6-0.1,26-1.4c8.5-1.3,15.2-4.3,18-9.3c2.7-4.9,3.1-6.4,3.1-6.4
				s8.1,11.4,15,12.7c7,1.3,27.6-5.8,27.6-5.8s12.6-3.4,14.8-7.8c2.2-4.3,8.1-18.6,8.1-18.6L168.9,175.7z M43,185.5
				c-0.1-0.1-0.2-0.1-0.3-0.2c-0.8-0.7-1.5-1.3-1.9-1.7L43,185.5z"/>
			<g>
				<path class="st1" d="M189.3,89.9c-0.1-0.6-0.1-1.3-0.2-1.9c-0.1-0.5-0.1-0.9-0.2-1.4c-1.7-1.5-3.7-2.8-5.8-3.9
					c-2.2-1.3-4.5-2.5-6.9-3.5c-2.4-1.1-4.8-2.1-7.2-3.1c-1.2-0.5-2.4-1-3.7-1.4c-1.2-0.5-2.5-0.9-3.7-1.4c2.6,0.4,5.2,1,7.7,1.7
					c1.7,0.4,3.3,0.9,5,1.4c-11.7-30.6-39.7-50.5-70.3-50.5S45.5,45.8,33.7,76.4c1.6-0.5,3.3-1,5-1.4c2.6-0.7,5.1-1.3,7.7-1.7
					c-1.2,0.5-2.5,0.9-3.7,1.4s-2.5,0.9-3.7,1.4c-2.4,1-4.8,2-7.2,3.1s-4.7,2.2-6.9,3.5c-2,1.2-4,2.5-5.8,3.9C19,87,19,87.5,18.9,88
					c-0.1,0.6-0.1,1.3-0.2,1.9c-0.1,1.3-0.2,2.6-0.2,3.9c0,2.6,0.2,5.2,0.5,7.8c0.4,2.6,0.8,5.2,1.5,7.7c0.3,1.3,0.7,2.5,1.2,3.7
					c0.2,0.6,0.5,1.2,0.7,1.8c0.1,0.3,0.3,0.6,0.4,0.8l0.2,0.3c0.2,0.1,0.4,0.2,0.6,0.3l1.2,0.6c0.6,0.3,1.5,0.7,2.3,1.1l0.1-0.1
					l-2.2-8.2c0.5-0.1,4.6-1.2,11.6-2.5c-0.6-0.1-1.1-0.2-1.7-0.4c-1.6-0.4-3.2-0.9-4.7-1.5c-0.8-0.3-1.5-0.7-2.2-1.1
					s-1.4-0.9-2-1.5c7.8,2.5,23.8,1.4,38.1-0.1c13-1.3,26.1-2.2,39.3-2.2c13.1,0,26.2,0.9,39.3,2.2c14.3,1.5,30.3,2.6,38.1,0.1
					c-0.5,0.6-1.2,1.1-2,1.5c-0.7,0.4-1.5,0.8-2.2,1.1c-1.5,0.6-3.1,1.1-4.7,1.5c-0.2,0.1-0.5,0.1-0.7,0.2
					c7.8,1.4,12.3,2.6,12.7,2.7l-2.1,7.8c0.4-0.2,0.8-0.4,1.2-0.6l1.2-0.6c0.2-0.1,0.4-0.2,0.6-0.3l0.2-0.3c0.1-0.3,0.3-0.6,0.4-0.8
					c0.3-0.6,0.5-1.2,0.7-1.8c0.5-1.2,0.9-2.4,1.2-3.7c0.7-2.5,1.2-5.1,1.5-7.7s0.5-5.2,0.5-7.8C189.4,92.5,189.4,91.2,189.3,89.9z"
					/>
				<path class="st2" d="M112.9,198.7c-1,0.2-2.1,0.3-3.1,0.4c-0.7,0-1.4,0.1-2,0.1h-0.2c0.8-1.8,1.4-3.2,1.9-4.2
					C110.4,196,111.5,197.3,112.9,198.7z"/>
				<path class="st2" d="M115.1,201c3.2,3.2,7.2,5,11.5,5.3c-7.3,3-14.2,4.1-19.5,4.5s-10.7-0.3-15.9-1.7c0.4-0.1,0.8-0.1,1.2-0.2
					c0.4-0.1,9.9-1.3,14.1-7.6h0.4h1c0.7,0,1.3-0.1,2-0.1c1.6-0.1,3.2-0.4,4.7-0.7C114.8,200.7,114.9,200.8,115.1,201z"/>
				<path class="st3" d="M124.2,106.3c-0.3,0.4-0.6,0.8-1,1.3c-1.9,2.4-4.5,5.4-7.5,8.3c-3.6-0.1-7.2-0.2-11-0.2
					c-6.2,0-12.2,0.2-17.9,0.4c8-3.3,17.7-6.6,28.1-8.5C117.9,107.1,121,106.6,124.2,106.3z"/>
				<path class="st3" d="M77.1,109.9c-2.9,2-6.1,4.6-9.2,7.7c-8,0.8-15.1,1.8-20.8,2.7C56,116.3,66.1,112.5,77.1,109.9z"/>
				<path class="st3" d="M175.4,126.5l-3.3,22.9l-15.7,11l-40.9-4.6l-6.2-20.3c-0.1-0.5-0.6-0.9-1.1-0.9c-1.5-0.2-2.9-0.4-4-0.4
					s-2.5,0.1-4,0.4c-0.5,0.1-0.9,0.4-1.1,0.9l-6,19.8l-40.6,9L36.6,153l-3.2-25.7c0.7-0.4,1.4-0.8,2.1-1.2c1-0.2,2.1-0.4,3.4-0.7
					l3,24.2c0,0.4,0.3,0.7,0.6,0.9l11.1,7.8c0.2,0.2,0.5,0.2,0.8,0.2c0.1,0,0.2,0,0.3,0l33.4-7.4c0.1,0,0.2-0.1,0.3-0.1
					c0.3-0.2,0.6-0.5,0.7-0.8l6-19.8c1.6-0.4,5.7-1.4,9.4-1.4c3.6,0,7.8,1,9.4,1.4l6,19.8c0.2,0.5,0.6,0.9,1.1,0.9l33.4,3.8
					c0.3,0,0.7,0,0.9-0.2l11.1-7.8c0.3-0.2,0.5-0.5,0.6-0.9l3-20.7C172.1,125.8,173.9,126.2,175.4,126.5z"/>
				<path class="st3" d="M179.5,112.2l-2.9,10.9c-5.9-1.3-18.8-3.8-36.4-5.6c5.7-2.5,11.6-5.5,16.9-9.4
					C167.7,109.6,175.4,111.2,179.5,112.2z"/>
				<g>
					<path class="st4" d="M61.7,146.3c2.3-1.2,4.9-1,8.9-1c0.4,0,0.9,0,1.3,0s0.8,0,1.2,0c4.2,0,7.6,0.4,7.5-6.2
						c-0.1-6.5-3-11.8-7.1-11.7c-4.2,0-8.2,5.4-7.9,11.9c0.1,1.7,0.3,2.9,0.7,3.8C62.8,143.9,61.8,146.2,61.7,146.3z M111.6,119.5
						c-1.6,1.3-3.3,2.5-5.1,3.6l-5.9,3.6c-3.7,0.5-6.9,1.4-7.1,1.4c-0.1,0-0.2,0.1-0.3,0.1c-0.3,0.2-0.5,0.4-0.6,0.8l-6,19.8
						l-32.1,7.1l-10.1-7.1L41.5,125c5.7-1.1,13.4-2.3,22.6-3.3c-1,1.2-1.9,2.4-2.9,3.7l-5.5,7.9l8-5.3c0.1-0.1,5.2-3.4,13.5-7.5
						c8.3-0.6,17.4-1,27.2-1C107,119.4,109.3,119.4,111.6,119.5z"/>
					<path class="st4" d="M146.8,143.6c0-0.2-0.9-2.8-4.8-2.3c0.4-1,0.6-2.3,0.5-4.1c-0.5-6.5-4.3-11.7-8.4-11.5
						c-4.1,0.1-6.8,5.5-6.6,12.1c0.2,6.5,3.7,6.5,7.9,6.3C140.9,144,144,142.3,146.8,143.6z M167.2,124.9l-2.9,20.2l-10.2,7.1
						l-32-3.6l-6-19.7c-0.1-0.4-0.5-0.8-0.9-0.9c-0.2-0.1-4.2-1.2-8.4-1.6l0.8-0.1c0.7,0,11.7-1.4,24.9-6
						C147.1,121.6,159.1,123.4,167.2,124.9z"/>
				</g>
				<g>
					<path class="st5" d="M61.7,146.3c2.3-1.2,4.9-1,8.9-1c0.4,0,0.9,0,1.3,0s0.8,0,1.2,0c4.2,0,7.6,0.4,7.5-6.2
						c-0.1-6.5-3-11.8-7.1-11.7c-4.2,0-8.2,5.4-7.9,11.9c0.1,1.7,0.3,2.9,0.7,3.8C62.8,143.9,61.8,146.2,61.7,146.3z M111.6,119.5
						c-1.6,1.3-3.3,2.5-5.1,3.6l-5.9,3.6c-3.7,0.5-6.9,1.4-7.1,1.4c-0.1,0-0.2,0.1-0.3,0.1c-0.3,0.2-0.5,0.4-0.6,0.8l-6,19.8
						l-32.1,7.1l-10.1-7.1L41.5,125c5.7-1.1,13.4-2.3,22.6-3.3c-1,1.2-1.9,2.4-2.9,3.7l-5.5,7.9l8-5.3c0.1-0.1,5.2-3.4,13.5-7.5
						c8.3-0.6,17.4-1,27.2-1C107,119.4,109.3,119.4,111.6,119.5z"/>
					<path class="st5" d="M146.8,143.6c0-0.2-0.9-2.8-4.8-2.3c0.4-1,0.6-2.3,0.5-4.1c-0.5-6.5-4.3-11.7-8.4-11.5
						c-4.1,0.1-6.8,5.5-6.6,12.1c0.2,6.5,3.7,6.5,7.9,6.3C140.9,144,144,142.3,146.8,143.6z M167.2,124.9l-2.9,20.2l-10.2,7.1
						l-32-3.6l-6-19.7c-0.1-0.4-0.5-0.8-0.9-0.9c-0.2-0.1-4.2-1.2-8.4-1.6l0.8-0.1c0.7,0,11.7-1.4,24.9-6
						C147.1,121.6,159.1,123.4,167.2,124.9z"/>
				</g>
				<path class="st2" d="M181.2,133.8c0.5,0.4,0.9,1.5,0.4,6.3c-0.5,6-3.1,16.5-4.6,18.2c-1.7,0.3-5.3-0.1-7.5-0.6
					c0.4-1.5,0.5-2.2,0.8-3.8l3.8-2.7c0.3-0.2,0.5-0.5,0.6-0.9l2.7-18.8C179,132.4,180.7,133.4,181.2,133.8z"/>
				<path class="st2" d="M39.6,158.4c0.2,0.7,0.4,1.4,0.6,2c-2.1,0.6-6.3,1.2-8.2,0.9c-1.6-1.6-4.5-12.5-5.2-18.3
					c-0.5-4.7-0.2-5.7,0.3-6.1c0.6-0.5,2.6-1.7,4.4-2.6l2.4,19.8c0,0.4,0.2,0.7,0.6,0.9L39.6,158.4z"/>
				<path class="st2" d="M117.3,158.6l-0.1,1.3c0,0-4.4,4.1-11.6,5c-7.1,0.9-12.7-3.5-12.7-3.5c0.2,0.8,0.6,2.5,2.2,3.9
					c-1.9-0.2-4-0.4-6.1-0.4c-0.8,0-1.6,0-2.3,0.1c-4.4,0.2-10.6,6.9-14.9,13.5c-2.1,0.7-8.8,2.8-16.5,5.1
					c-7.2-10-10.7-20.1-11.1-21.2l0,0c-0.1-0.4-0.3-0.8-0.4-1.2l1.8,1.3l0,0l4.6,3.2l1.5,1.1c0.2,0.2,0.5,0.2,0.8,0.2
					c0.1,0,0.2,0,0.3,0l42-9.3c0.5-0.1,0.9-0.5,1-0.9l6-19.7c1-0.1,1.9-0.2,2.7-0.2c0.8,0,1.7,0.1,2.7,0.2l6.2,20.3
					c0.2,0.5,0.6,0.9,1.1,0.9L117.3,158.6z"/>
				<path class="st2" d="M165.2,157.5l1.4-1c-0.2,0.9-0.5,1.9-0.7,2.8c-1.9,6-4.1,11.4-6.6,16.1c-0.5,0-1.1,0.1-1.7,0.1
					c-1.9,0-3.9-0.2-6-0.4c-3.7-0.3-9.7-1-11.5-1.2c-1.6-1.3-7.1-5.7-11.7-9.3c-0.2-0.1-0.3-0.3-0.5-0.4c-0.8-0.7-1.7-1.5-3.6-1.5
					c-1.7,0-4.2,0.6-10.1,2.4c3.1-2.3,3.1-5.3,3.1-5.3l0.1-1.3l39.4,4.5c0.3,0,0.7,0,0.9-0.2l4-2.8L165.2,157.5z"/>
				<path class="st6" d="M136.2,74.7c0.1,3.5,0,9.9-1.6,15.8c-0.1,0.2-0.1,0.5,0,0.7c-2.1-0.2-4.2-0.4-6.2-0.6
					c2.3-4.9,2.8-10.1,2.9-11.9C133.1,77.4,134.9,75.9,136.2,74.7z"/>
				<path class="st6" d="M76.8,78.7c0.1,1.8,0.6,7,2.9,11.9c-2.1,0.2-4.2,0.4-6.2,0.6c0.1-0.2,0.1-0.4,0-0.7
					c-1.6-5.9-1.7-12.3-1.6-15.8C73.2,75.9,75,77.4,76.8,78.7z"/>
				<path class="st7" d="M146.8,143.6c-2.8-1.3-5.9,0.4-11.4,0.5c-4.1,0.1-7.6,0.2-7.9-6.3c-0.2-6.5,2.4-11.9,6.6-12.1
					c4.1-0.1,7.9,5,8.4,11.5c0.1,1.8-0.1,3.1-0.5,4.1C145.8,140.9,146.7,143.5,146.8,143.6z M133.7,134.1c1.2,0,2.1-1,2.1-2.2
					s-1-2.1-2.2-2.1s-2.1,1-2.1,2.2C131.6,133.2,132.5,134.1,133.7,134.1z"/>
				<ellipse class="st8" cx="133.7" cy="132" rx="2.1" ry="2.1"/>
				<path class="st7" d="M80.7,139.1c0.1,6.5-3.4,6.1-7.5,6.2c-0.4,0-0.8,0-1.2,0c-0.5,0-0.9,0-1.3,0c-4,0-6.6-0.2-8.9,1
					c0.1-0.1,1.1-2.4,4.7-3.3c-0.4-0.9-0.7-2.1-0.7-3.8c-0.2-6.5,3.8-11.9,7.9-11.9C77.7,127.3,80.6,132.6,80.7,139.1z M74.3,135.7
					c1.2,0,2.1-1,2.1-2.2s-1-2.1-2.2-2.1s-2.1,1-2.1,2.2C72.1,134.8,73.1,135.7,74.3,135.7z"/>
				<ellipse class="st8" cx="74.2" cy="133.5" rx="2.1" ry="2.1"/>
				<g class="st9">
					<path class="st6" d="M49,94.8c0,0,0.6-8.4,2-11.6c0.7-1.7,4.8-2.7,8-3.5s8.2-2.3,9.2,2.2s2.6,7.7,3.6,9.1l-1.4-18.3L48.6,78
						l-1.4,16.2l0.7,1.3L49,94.8"/>
					<path class="st6" d="M159.3,94.8c0,0-0.6-8.4-2-11.6c-0.7-1.7-4.8-2.7-8-3.5s-8.2-2.3-9.2,2.2s-2.6,7.7-3.6,9.1l1.4-18.3
						l21.8,5.3l1.4,16.2l-0.7,1.3L159.3,94.8"/>
				</g>
				<path class="st10" d="M128.5,39.9c0,0-0.6,44-10.8,44c-10.3,0-12.3,0-12.3,0h-2.1c0,0-2.1,0-12.3,0S79.9,40,79.9,40l-5,14.9
					L75,75.4l3.6,2.8l1.6,8.8l2.3,5.1l44,0.1l2-3.7l1.7-6.2l0.2-3.9l4.9-13.9L128.5,39.9z"/>
				<path class="st10" d="M160.9,80.9c0,0,2.1,15.2,7.7,17.9c5.6,2.7,0,0,0,0l-7.8-2.4L160.9,80.9z"/>
				<path class="st10" d="M47.3,80.9c0,0-2.1,15.2-7.7,17.9c-5.6,2.7,0,0,0,0l7.8-2.4L47.3,80.9z"/>
				<path class="st7" d="M162.4,96.4c2.7,0.9,5.3,1.8,7.8,3.2c-1.3-0.5-2.6-0.9-4-1.2c-1.3-0.3-2.7-0.6-4.1-0.9
					c-2.7-0.5-5.5-0.9-8.2-1.3s-5.5-0.7-8.3-0.9c-2.8-0.2-5.5-0.5-8.3-0.6c-11.1-0.7-22.2-0.9-33.3-0.9S81.8,94,70.7,94.7
					c-2.8,0.2-5.5,0.4-8.3,0.6s-5.5,0.5-8.3,0.9c-2.8,0.3-5.5,0.8-8.2,1.3c-1.4,0.3-2.7,0.6-4.1,0.9c-1.3,0.3-2.7,0.7-4,1.2
					c2.4-1.4,5.1-2.3,7.8-3.2c0.2-0.1,0.5-0.1,0.7-0.2c0-0.1,0-0.1,0-0.2c0-0.3-1-7.6,0.7-18c0.1-0.5,0.4-0.9,0.9-1l2.8-0.8
					c0.6-21.9,9.6-32.2,9.9-32.5c-8,12.9-8,28.3-7.8,31.9l17.5-5l0,0c0.1,0,0.1,0,0.2,0c0,0,0,0,0.1,0s0.2,0,0.3,0c0,0,0,0,0.1,0
					s0.1,0,0.2,0.1h0.1c0.1,0,0.1,0.1,0.2,0.1l0,0l0,0c0,0,0,0,0.1,0c0,0,0.5,0.5,1.2,1.2c-0.2-5.8,0.1-22.3,8-36.1
					c-0.2,0.5-6.4,18.8-4.3,39.3c0.7,0.6,1.4,1.1,2.2,1.6c0.3,0.2,0.6,0.6,0.6,1.1c0,0.1,0.2,6.6,3,12.2c0,0.1,0.1,0.2,0.1,0.3
					c7.2-0.5,14.4-0.7,21.6-0.7s14.4,0.2,21.6,0.7c0-0.1,0.1-0.2,0.1-0.3c2.9-5.6,3-12.1,3-12.2c0-0.4,0.2-0.8,0.6-1.1
					c0.7-0.5,1.4-1,2.1-1.6c2.2-20.5-4.1-38.8-4.3-39.3c7.9,13.7,8.2,30.3,8,36.1c0.7-0.7,1.2-1.2,1.2-1.2s0,0,0.1,0l0,0l0,0
					c0.1,0,0.1-0.1,0.2-0.1h0.1c0.1,0,0.1-0.1,0.2-0.1l0,0c0.1,0,0.2,0,0.3,0c0,0,0,0,0.1,0s0.2,0,0.2,0l0,0l17.5,5
					c0.1-3.6,0.2-18.9-7.8-31.9c0.3,0.3,9.3,10.6,9.9,32.5l2.8,0.8c0.5,0.1,0.8,0.5,0.9,1c1.7,10.4,0.7,17.7,0.7,18
					c0,0.1,0,0.1,0,0.2C161.9,96.3,162.1,96.3,162.4,96.4z M159.2,95.5c0.1-1.2,0.8-7.5-0.6-16.2l-19.8-5.6
					c0.2,3.4,0.3,10.6-1.6,17.6c0,0.1-0.1,0.2-0.1,0.2c0.2,0,0.4,0,0.6,0.1c5.6,0.6,11.1,1.5,16.6,2.7
					C155.9,94.6,157.5,95,159.2,95.5z M134.6,90.5c1.6-5.9,1.7-12.3,1.6-15.8c-1.3,1.2-3.1,2.7-4.9,4c-0.1,1.8-0.6,7-2.9,11.9
					c2.1,0.2,4.2,0.4,6.2,0.6C134.6,90.9,134.6,90.7,134.6,90.5z M79.7,90.6c-2.3-4.9-2.8-10.1-2.9-11.9c-1.8-1.3-3.6-2.8-4.9-4
					c-0.1,3.5,0,9.9,1.6,15.8c0.1,0.2,0.1,0.5,0,0.7C75.6,90.9,77.7,90.7,79.7,90.6z M71.1,91.4c0-0.1-0.1-0.2-0.1-0.2
					c-1.9-6.9-1.8-14.2-1.7-17.6l-19.8,5.6c-1.3,8.7-0.7,15.1-0.6,16.2c1.6-0.4,3.3-0.9,5-1.2c2.7-0.6,5.5-1.1,8.3-1.6
					c2.8-0.5,5.6-0.8,8.3-1.2C70.7,91.5,70.9,91.4,71.1,91.4z"/>
				<g id="XMLID_2_">
					<g>
						<path class="st7" d="M125,40.5V57h-11.7v-4.8h-2.6v22.2h4v12.4H94.2V74.4h4V52.2h-2.6V57H83.9V40.5H125z M121.5,53.5V44h-5.1
							h-9.2H87.4v9.5h4.7v-4.8h9.6v29.2h-4v5.4h13.4v-5.4h-4V48.7h9.6v4.8H121.5z"/>
						<polygon class="st0" points="121.5,44 121.5,53.5 116.8,53.5 116.8,48.7 107.2,48.7 107.2,77.9 111.1,77.9 111.1,83.3 
							97.7,83.3 97.7,77.9 101.7,77.9 101.7,48.7 92.1,48.7 92.1,53.5 87.4,53.5 87.4,44 107.2,44 116.4,44 						"/>
					</g>
				</g>
				<path class="st3" d="M29.7,112.2c1.7-0.4,4-0.9,6.8-1.4c-1.7,1.2-3.8,2.7-6,4.4L29.7,112.2z"/>
				<path class="st5" d="M91.9,157.3c0,0,0.5,3.1-3.8,4.4c-4.3,1.3-31.4,9.4-34.5,9S42.7,165,42.7,165l-1.9-6.8l11.6,7.2L91.9,157.3
					z"/>
				<path class="st5" d="M116.2,156.7c0,0-0.3,3.1,4,4.2c4.3,1.1,31.8,8,34.8,7.4c3.1-0.6,10.7-6.1,10.7-6.1l1.6-6.8l-10.7,6.4
					L116.2,156.7z"/>
				<path class="st5" d="M27.5,151.6c0,0,3.8,7.5,9.8,4.9l4.3,1.6l-0.4,3.2l-9.1,1.2l-2.5-1.4L27.5,151.6z"/>
				<path class="st5" d="M181.3,149.6c0,0-6.1,7.8-12.2,5.2l-2,1.3l0.4,3.2l9.1,1.2l2.5-1.4L181.3,149.6z"/>
				<path class="st5" d="M86.3,208.6c0,0,22.3,11.2,47.5-4l-8.1-0.6c0,0-17.7,7-31.6,3.1L86.3,208.6z"/>
				<path class="st7" d="M108.9,187.9l1.5,1.8c0,0,3.5,4.1,7.6,8.3c2.8,2.8,6.1,4.2,10,4.2c1.3,0,2.7-0.2,4.1-0.5
					c1.3-0.3,2.7-0.7,4.1-1c5.2-1.2,11.1-2.7,14-3.5c0.6-0.2,1.2-0.3,1.9-0.5c3.8-0.9,9-2.1,11.8-7.6c2.1-4.2,4.9-9.5,7-13.5
					c-1.8,0.8-3.7,1.7-5,2.4c-2.1,1.1-4.8,1.6-8.3,1.6c-2.1,0-4.1-0.2-6.4-0.4c-4.5-0.4-12.2-1.3-12.2-1.3l-0.6-0.1l-0.5-0.4
					c-0.1-0.1-6.8-5.4-12.2-9.6c-0.2-0.2-0.4-0.3-0.6-0.5c-0.6-0.5-0.6-0.5-0.9-0.5c-1.7,0-6.8,1.6-17.8,5l-0.7,0.2l-0.7-0.3
					c-0.1,0-7.3-2.7-16-2.7c-0.7,0-1.4,0-2.1,0.1c-0.9,0-5.8,2.4-12,12.3l-0.4,0.6l-0.7,0.2c-0.1,0-10.9,3.5-22.3,6.8l-0.7,0.2
					L50,189c-0.1,0-4.5-2.1-8.8-4.1c2.3,3.4,5.3,7.7,7.9,11c4.6,5.9,10.3,11.3,21.3,11.3c1.4,0,2.8-0.1,4.4-0.3
					c11.2-1.3,14.1-1.8,15.6-2c0.5-0.1,0.9-0.2,1.5-0.2c0.1,0,9.3-1.2,11.8-7c2.7-5.9,3.2-7.3,3.2-7.4l0.9-2.5c0,0,0.1-0.6,0.3-0.8
					l0,0l0,0C108.4,187.3,108.9,187.9,108.9,187.9z M39.1,76c-2.4,1-4.8,2-7.2,3.1s-4.7,2.2-6.9,3.5c-2,1.2-4,2.5-5.8,3.9
					c-0.1,0.4-0.1,0.9-0.2,1.4c-0.1,0.6-0.2,1.3-0.2,1.9c-0.1,1.3-0.2,2.6-0.2,3.9c0,2.6,0.2,5.2,0.5,7.8c0.4,2.6,0.8,5.2,1.5,7.7
					c0.4,1.3,0.7,2.5,1.2,3.7c0.2,0.6,0.5,1.2,0.7,1.8c0.1,0.3,0.3,0.6,0.4,0.8l0.2,0.3c0.2,0.1,0.4,0.2,0.6,0.3l1.2,0.6
					c0.7,0.3,1.5,0.7,2.3,1.1l0.1-0.1l-2.2-8.2c0.5-0.1,4.6-1.2,11.6-2.5c-0.6-0.1-1.2-0.2-1.7-0.4c-1.6-0.4-3.2-0.9-4.7-1.5
					c-0.8-0.3-1.5-0.7-2.2-1.1s-1.4-0.9-2-1.5c7.8,2.5,23.8,1.4,38.1-0.1c13-1.3,26.1-2.2,39.3-2.2c13.1,0,26.2,0.9,39.3,2.2
					c14.3,1.5,30.3,2.6,38.1,0.1c-0.5,0.6-1.2,1.1-2,1.5c-0.7,0.4-1.5,0.8-2.2,1.1c-1.5,0.6-3.1,1.1-4.7,1.5
					c-0.2,0.1-0.5,0.1-0.7,0.2c7.8,1.4,12.3,2.6,12.7,2.7l-2.1,7.8c0.4-0.2,0.8-0.4,1.2-0.6l1.2-0.6c0.2-0.1,0.4-0.2,0.6-0.3
					l0.2-0.3c0.1-0.3,0.3-0.6,0.4-0.8c0.3-0.6,0.5-1.2,0.7-1.8c0.5-1.2,0.8-2.4,1.2-3.7c0.7-2.5,1.2-5.1,1.5-7.7s0.5-5.2,0.5-7.8
					c0-1.3-0.1-2.6-0.2-3.9c-0.1-0.7-0.1-1.3-0.2-1.9c-0.1-0.5-0.1-0.9-0.2-1.4c-1.7-1.5-3.7-2.8-5.8-3.9c-2.2-1.3-4.5-2.5-6.9-3.5
					c-2.4-1.1-4.8-2.1-7.2-3.1c-1.2-0.5-2.4-1-3.7-1.4c-1.2-0.5-2.5-0.9-3.7-1.4c2.6,0.4,5.2,1,7.7,1.7c1.7,0.4,3.3,0.9,5,1.4
					c-11.7-30.6-39.7-50.5-70.3-50.5S45.4,45.7,33.7,76.3c1.6-0.5,3.3-1,5-1.4c2.6-0.7,5.1-1.3,7.8-1.7c-1.2,0.5-2.5,0.9-3.7,1.4
					C41.6,75,40.4,75.5,39.1,76z M193.2,93.7c0.1,2.8,0.1,5.6-0.2,8.4s-0.8,5.6-1.6,8.3c-0.4,1.4-0.8,2.7-1.4,4.1
					c-0.3,0.7-0.5,1.3-0.9,2c-0.2,0.3-0.3,0.7-0.5,1l-0.3,0.5c-0.1,0.2-0.2,0.3-0.3,0.6l-0.3,0.4l-0.4,0.2c-0.5,0.2-0.9,0.4-1.3,0.6
					l-1.3,0.6c-0.8,0.4-1.7,0.7-2.5,1c-0.6,0.2-1.1,0.4-1.6,0.7l-1.4,5.3c0,0-0.5-0.1-1.2-0.3l-0.1,0.6c1.5,0.8,4.6,2.4,5.6,3.3
					c2.1,1.7,2.2,4.4,1.8,9.5c-0.2,2.6-1.1,7.7-2.3,12.3c-2.1,8-3.2,9-4.6,9.3c-0.7,0.2-1.8,0.4-2.9,0.4c-2.2,0-5.2,0.1-7.2-0.4
					c-0.5,1.8-2,6.6-4.9,12.5c0.1-0.1,0.3-0.1,0.4-0.2c3.6-1.9,10.5-4.9,10.8-5l5.5-2.4l-2.8,5.3c-0.1,0.1-6.1,11.4-9.7,18.7
					c-3.6,7.3-10.5,8.9-14.6,9.8c-0.6,0.1-1.2,0.3-1.7,0.4c-2.9,0.8-8.9,2.2-14.1,3.5c-0.1,0-0.1,0-0.2,0c-3.2,2-6.7,3.8-10.6,5.2
					c-14.1,5.3-28.9,5-42.4,0.1c-2.2,0.3-5.1,0.6-8.9,1.1c-1.7,0.2-3.3,0.3-4.8,0.3c-12.8,0-19.6-6.5-24.6-12.9
					c-5.3-6.8-11.8-17-12.1-17.4l-3.8-5.9l6.4,2.9c3,1.4,12.1,5.6,14.7,6.8c0.2-0.1,0.4-0.1,0.6-0.2c-4.3-6.1-7.8-13.1-10.3-20.9
					c-2.1,0.6-5.4,1.1-7.9,1.1c-0.9,0-1.8-0.1-2.4-0.2c-1.4-0.3-3-1.7-5.2-9.5c-1.3-4.5-2.2-9.4-2.5-12c-0.6-4.9-0.5-7.6,1.6-9.3
					c1.2-1,5.4-3.2,6.3-3.7l-0.2-1.5c-13.3,7.8-21.3,14.7-21.4,14.9L0,152l6.8-10.7c5.4-8.5,11.5-15.3,17.2-20.6
					c-0.2-0.1-0.5-0.2-0.7-0.3l-1.3-0.6c-0.4-0.2-0.8-0.4-1.3-0.6l-0.4-0.2l-0.3-0.4c-0.2-0.2-0.2-0.4-0.3-0.6l-0.3-0.5
					c-0.2-0.3-0.3-0.7-0.5-1c-0.3-0.7-0.6-1.3-0.9-2c-0.5-1.3-1-2.7-1.4-4.1c-0.7-2.7-1.3-5.5-1.6-8.3s-0.4-5.6-0.3-8.4
					c0.1-1.4,0.2-2.8,0.4-4.2c0.1-0.7,0.2-1.4,0.3-2.1s0.3-1.4,0.5-2.1l0.1-0.5l0.4-0.3c2.2-1.7,4.6-3.1,7-4.2c2-0.9,4-1.8,6.1-2.5
					c5.7-15.9,15.6-30.1,28.6-39.9c13.4-10.2,29.2-15.6,45.6-15.6s32.2,5.4,45.6,15.6c13,9.9,22.9,24,28.6,39.9
					c2.1,0.8,4.1,1.6,6.1,2.5c2.4,1.2,4.8,2.5,7,4.2l0.4,0.3l0.2,0.5c0.2,0.8,0.4,1.4,0.5,2.1s0.3,1.4,0.3,2.1
					C193,90.9,193.2,92.3,193.2,93.7z M181.6,140.1c0.4-4.9,0.1-5.9-0.4-6.3c-0.5-0.4-2.2-1.4-3.8-2.3l-2.7,18.8
					c-0.1,0.4-0.3,0.7-0.6,0.9l-3.8,2.7c-0.3,1.5-0.4,2.3-0.8,3.8c2.2,0.5,5.8,0.9,7.5,0.6C178.6,156.6,181.1,146.1,181.6,140.1z
					 M176.7,123.1l2.9-10.9c-4.2-0.9-11.9-2.5-22.3-4c-5.3,3.8-11.2,6.9-16.9,9.4C157.8,119.2,170.8,121.8,176.7,123.1z
					 M172.1,149.4l3.3-22.9c-1.5-0.3-3.3-0.7-5.5-1.1l-3,20.7c-0.1,0.4-0.3,0.7-0.6,0.9l-11.1,7.8c-0.3,0.2-0.6,0.3-0.9,0.2
					l-33.4-3.8c-0.5-0.1-1-0.4-1.1-0.9l-6-19.8c-1.6-0.4-5.7-1.4-9.4-1.4c-3.6,0-7.8,1-9.4,1.4l-6,19.8c-0.1,0.3-0.3,0.6-0.7,0.8
					c-0.1,0.1-0.2,0.1-0.3,0.1l-33.4,7.4c-0.1,0-0.2,0-0.3,0c-0.3,0-0.5-0.1-0.8-0.2l-11.1-7.8c-0.3-0.2-0.5-0.6-0.6-0.9l-3-24.2
					c-1.2,0.2-2.4,0.5-3.4,0.7c-0.7,0.4-1.4,0.8-2.1,1.2l3.2,25.7l16.1,11.3l40.6-9l6-19.8c0.2-0.5,0.6-0.9,1.1-0.9
					c1.5-0.2,2.9-0.4,4-0.4s2.5,0.1,4,0.4c0.5,0.1,0.9,0.4,1.1,0.9l6.2,20.3l40.9,4.6L172.1,149.4z M164.3,145.1l2.9-20.2
					c-8.2-1.5-20.1-3.3-34.7-4.4c-13.2,4.5-24.2,5.9-24.9,5.9l-0.8,0.1c4.2,0.4,8.2,1.5,8.4,1.6c0.4,0.1,0.8,0.5,0.9,0.9l6,19.7
					l32,3.6L164.3,145.1z M166.6,156.6l-1.4,1l-3.7,2.6l-4,2.8c-0.3,0.2-0.6,0.3-0.9,0.2l-39.4-4.5l-2.9-0.3c-0.5-0.1-1-0.4-1.1-0.9
					l-6.2-20.3c-1-0.1-1.9-0.2-2.7-0.2c-0.8,0-1.7,0.1-2.7,0.2l-6,19.7c-0.1,0.5-0.5,0.8-1,0.9l-42,9.3c-0.1,0-0.2,0-0.3,0
					c-0.3,0-0.5-0.1-0.8-0.2l-1.5-1.1l-4.6-3.2l0,0l-1.8-1.3c0.1,0.4,0.3,0.8,0.4,1.2l0,0c0.4,1.1,3.9,11.2,11.1,21.2
					c7.7-2.3,14.4-4.4,16.5-5.1c4.3-6.7,10.5-13.3,14.9-13.5c0.8,0,1.5-0.1,2.3-0.1c2.1,0,4.2,0.2,6.1,0.4c-1.6-1.5-1.9-3.2-2.2-3.9
					c0,0,5.6,4.4,12.7,3.5s11.6-5,11.6-5s0,3-3.1,5.3c6-1.8,8.4-2.4,10.1-2.4c1.9,0,2.8,0.8,3.6,1.5c0.2,0.1,0.3,0.3,0.5,0.4
					c4.6,3.6,10.1,8,11.7,9.3c1.9,0.2,7.8,0.9,11.5,1.2c2.2,0.2,4.1,0.4,6,0.4c0.6,0,1.2,0,1.7-0.1c2.5-4.7,4.7-10.1,6.6-16.1
					C166.1,158.5,166.3,157.5,166.6,156.6z M152,106.7L152,106.7c-3.2-0.2-6.4-0.5-9.5-0.6c-4.4-0.3-8.8-0.5-13.2-0.6
					c-0.3,0.4-0.8,1.1-1.5,2.2c-2.4,3.2-7.2,9.2-13.2,14.2c8.6-1.5,23.6-5.4,36.5-14.4C151.4,107.2,151.7,107,152,106.7z
					 M123.1,107.6c0.4-0.5,0.7-0.9,1-1.3c-3.2,0.3-6.3,0.8-9.3,1.4c-10.5,2-20.1,5.2-28.1,8.5c5.7-0.3,11.7-0.4,17.9-0.4
					c3.8,0,7.4,0.1,11,0.2C118.7,113,121.3,110,123.1,107.6z M126.6,206.3c-4.4-0.3-8.3-2.1-11.5-5.3c-0.2-0.2-0.3-0.3-0.5-0.5
					c-1.5,0.3-3.1,0.5-4.7,0.7c-0.7,0-1.3,0.1-2,0.1h-1h-0.4c-4.2,6.3-13.7,7.6-14.1,7.6s-0.7,0.1-1.2,0.2
					c5.3,1.4,10.6,2.1,15.9,1.7C112.4,210.4,119.3,209.3,126.6,206.3z M109.8,199.1c1-0.1,2-0.2,3.1-0.4c-1.3-1.4-2.5-2.7-3.4-3.7
					c-0.5,1-1.1,2.4-1.9,4.2h0.2C108.4,199.2,109.1,199.1,109.8,199.1z M106.6,123.1c1.8-1.1,3.5-2.3,5.1-3.6c-2.3,0-4.6-0.1-7-0.1
					c-9.8,0-18.9,0.4-27.2,1c-8.3,4.1-13.4,7.4-13.5,7.5l-8,5.3l5.5-7.9c0.9-1.3,1.9-2.5,2.9-3.7c-9.2,1-16.9,2.3-22.6,3.3l2.9,23.8
					l10.1,7.1l32.1-7.1l6-19.8c0.1-0.3,0.3-0.6,0.6-0.8c0.1-0.1,0.2-0.1,0.3-0.1c0.2-0.1,3.4-1,7.1-1.4L106.6,123.1z M110.2,104.9
					c-2.2,0-4.5-0.1-6.7-0.1l0,0c-3.3,0-6.6,0-9.8,0.1l-6.1,2.9c0,0,0,0-0.1,0c-0.9,0.4-8.9,4.5-16.4,11.6
					c6.7-3.5,16.6-8.1,28.2-11.7C102.8,106.7,106.5,105.7,110.2,104.9z M67.9,117.6c3.1-3.1,6.4-5.7,9.2-7.7
					c-11,2.6-21.2,6.3-30.1,10.4C52.8,119.4,59.9,118.4,67.9,117.6z M70,108c3.7-1,7.5-1.9,11.4-2.7c-5.6,0.2-11.2,0.5-16.8,0.8
					c-3.3,0.2-6.5,0.4-9.7,0.6c-1.6,0.1-3.2,0.3-4.8,0.4c-0.5,0-0.9,0.1-1.4,0.2c-4.2,2.5-20.4,12.7-31.5,26
					C27.9,125.8,46.7,114.5,70,108z M40.2,160.4c-0.2-0.7-0.4-1.4-0.6-2l-5-3.5c-0.3-0.2-0.5-0.6-0.6-0.9l-2.4-19.8
					c-1.8,1-3.9,2.2-4.4,2.6c-0.5,0.4-0.8,1.4-0.3,6.1c0.6,5.8,3.6,16.8,5.2,18.3C33.9,161.6,38.1,161,40.2,160.4z M36.5,110.8
					c-2.8,0.5-5.1,1-6.8,1.4l0.8,3C32.7,113.4,34.7,111.9,36.5,110.8z"/>
			</g>
		</g>
	</g>
	<g>
		<path class="st7" d="M236.6,104.1h-22.1V92.6h57.6V104h-22v65h-13.5V104.1z"/>
		<path class="st7" d="M271,111.7h11.1l0.9,10.2h0.5c4.1-7.5,10.2-11.6,16.2-11.6c2.9,0,4.8,0.4,6.5,1.2l-2.3,11.7
			c-2-0.6-3.5-0.9-6-0.9c-4.6,0-10,3.2-13.5,11.8v35H271V111.7z"/>
		<path class="st7" d="M343,132.3c-0.1-6.1-2.7-11.2-10.4-11.2c-5.7,0-11.1,2.6-16.1,5.6l-4.9-9c6.3-4,14.4-7.5,23.5-7.5
			c14.4,0,21.4,8.8,21.4,24.8v34h-11l-1.1-6.3H344c-5.1,4.3-11,7.7-17.7,7.7c-10,0-17-6.8-17-16.8
			C309.3,141.3,319.6,134.9,343,132.3z M330.5,159.9c4.7,0,8.3-2.3,12.5-6.3v-12.8c-15.5,2-20.7,6.1-20.7,11.8
			C322.4,157.7,325.8,159.9,330.5,159.9z"/>
		<path class="st7" d="M360.4,111.7h13.7l9.1,29.8c1.5,5.6,3.3,11.4,4.8,17.3h0.5c1.6-5.8,3.3-11.7,4.9-17.3l9.1-29.8h13L395.9,169
			h-15.5L360.4,111.7z"/>
		<path class="st7" d="M420.6,94c0-4.6,3.5-7.7,8.3-7.7s8.3,3.2,8.3,7.7c0,4.4-3.5,7.6-8.3,7.6S420.6,98.5,420.6,94z M422.1,111.7
			h13.4V169h-13.4V111.7z"/>
		<path class="st7" d="M449.6,153.8c5.1,4,10,6.4,15.9,6.4c6.2,0,9.1-2.9,9.1-6.9c0-4.8-6.2-6.9-12.3-9.2
			c-7.6-2.8-16.1-7.1-16.1-16.7c0-10,8.1-17.2,20.9-17.2c7.9,0,14.4,3.3,19,6.9l-6.2,8.2c-4-2.9-8.1-4.9-12.6-4.9
			c-5.7,0-8.4,2.7-8.4,6.3c0,4.4,5.7,6.3,11.9,8.5c7.8,2.9,16.5,6.7,16.5,17.4c0,9.8-7.8,17.7-22.3,17.7c-7.8,0-16.1-3.4-21.7-7.9
			L449.6,153.8z"/>
		<path class="st7" d="M553.5,91.2c9.3,0,16.9,4.6,21.7,9.7l-7.5,8.4c-4-3.9-8.3-6.3-14.1-6.3c-12.5,0-21.5,10.5-21.5,27.7
			c0,17.4,8.3,27.9,21,27.9c6.8,0,11.8-2.8,16.1-7.6l7.5,8.3c-6.2,7.1-14.1,11.1-23.8,11.1c-19.4,0-34.7-14-34.7-39.4
			C518.2,106.1,533.8,91.2,553.5,91.2z"/>
		<path class="st7" d="M585.1,92.6h13.5V169h-13.5V92.6z"/>
	</g>
</g>
<text transform="matrix(1 0 0 1 214.2729 216.5459)" class="st11 st12 st13">An Idera, Inc. Company</text>
</svg>
