<svg xmlns="http://www.w3.org/2000/svg" xmlns:xlink="http://www.w3.org/1999/xlink" id="Layer_1" x="0" y="0" version="1.1" viewBox="0 0 1000.1 1000.1" xml:space="preserve" style="enable-background:new 0 0 1000.1 1000.1"><style type="text/css">.st0{fill:#7144fd}.st1{fill:none;stroke:#2f2683;stroke-width:1.197;stroke-linecap:round;stroke-linejoin:round;stroke-miterlimit:10}.st2{opacity:.4}.st3{fill:#8f8fff}.st4{fill:#29169b}.st5{fill:#dbdce0}.st6{fill:#4727cc}.st7{opacity:.3;enable-background:new}.st7,.st8{fill:#00c3ff}.st9{fill:#f7f6f0}.st10{opacity:.2;fill:#2e2eb7;enable-background:new}.st11{fill-rule:evenodd;clip-rule:evenodd;fill:#4727cc}.st12{opacity:.6;fill:#00c3ff;enable-background:new}.st13{fill:none;stroke:#2f2683;stroke-linecap:round;stroke-linejoin:round;stroke-miterlimit:10}.st14{fill:#324f6d}.st15{opacity:.7;fill:#5822f2;enable-background:new}.st16,.st17{fill-rule:evenodd;clip-rule:evenodd;fill:#7144fd}.st17{fill:#80ebeb}.st18{fill:#a6c2d7}.st19{fill:#2f2683}.st20{fill:#3a11d1}.st21{fill:#fea086}.st22{fill:#ff5f5f}.st23{fill:#2e2eb7}.st24{fill:#05ad93}.st25{fill:#fff}</style><g><g><path d="M571.8,66.2c241.5,66.8,138.6,308.2,306,420.4s145.7,342.5-176,438.1c-284.6,84.5-583.7,33.4-653.2-322.1 C-22.4,241.9,306.3-7.2,571.8,66.2z" class="st0"/><path d="M556.2,52.6c241.6,66.9,138.7,308.2,306,420.4s145.7,342.5-176,438.1C401.6,995.5,102.5,944.4,32.8,589 C-38.1,228.1,290.6-21.1,556.2,52.6z" class="st1"/></g><g class="st2"><g><circle cx="937.4" cy="899.4" r="3.3" class="st3"/><circle cx="917.8" cy="899.4" r="3.3" class="st3"/><circle cx="898.4" cy="899.4" r="3.3" class="st3"/><circle cx="878.9" cy="899.4" r="3.3" class="st3"/><circle cx="859.3" cy="899.4" r="3.3" class="st3"/><circle cx="839.8" cy="899.4" r="3.3" class="st3"/><circle cx="820.3" cy="899.4" r="3.3" class="st3"/><circle cx="800.8" cy="899.4" r="3.3" class="st3"/><circle cx="781.3" cy="899.4" r="3.3" class="st3"/><circle cx="761.7" cy="899.4" r="3.3" class="st3"/></g><g><circle cx="927.9" cy="888.6" r="3.3" class="st3"/><circle cx="908.4" cy="888.6" r="3.3" class="st3"/><circle cx="888.8" cy="888.6" r="3.3" class="st3"/><circle cx="869.3" cy="888.6" r="3.3" class="st3"/><circle cx="849.9" cy="888.6" r="3.3" class="st3"/><circle cx="830.3" cy="888.6" r="3.3" class="st3"/><circle cx="810.8" cy="888.6" r="3.3" class="st3"/><circle cx="791.2" cy="888.6" r="3.3" class="st3"/><circle cx="771.7" cy="888.6" r="3.3" class="st3"/></g><g><circle cx="937.4" cy="874.4" r="3.3" class="st3"/><circle cx="917.8" cy="874.4" r="3.3" class="st3"/><circle cx="898.4" cy="874.4" r="3.3" class="st3"/><circle cx="878.9" cy="874.4" r="3.3" class="st3"/><circle cx="859.3" cy="874.4" r="3.3" class="st3"/><circle cx="839.8" cy="874.4" r="3.3" class="st3"/><circle cx="820.3" cy="874.4" r="3.3" class="st3"/><circle cx="800.8" cy="874.4" r="3.3" class="st3"/><circle cx="781.3" cy="874.4" r="3.3" class="st3"/><circle cx="761.7" cy="874.4" r="3.3" class="st3"/></g><g><circle cx="927.9" cy="863.5" r="3.3" class="st3"/><circle cx="908.4" cy="863.5" r="3.3" class="st3"/><circle cx="888.8" cy="863.5" r="3.3" class="st3"/><circle cx="869.3" cy="863.5" r="3.3" class="st3"/><circle cx="849.9" cy="863.5" r="3.3" class="st3"/><circle cx="830.3" cy="863.5" r="3.3" class="st3"/><circle cx="810.8" cy="863.5" r="3.3" class="st3"/><circle cx="791.2" cy="863.5" r="3.3" class="st3"/><circle cx="771.7" cy="863.5" r="3.3" class="st3"/></g><g><circle cx="937.4" cy="849.4" r="3.3" class="st3"/><circle cx="917.8" cy="849.4" r="3.3" class="st3"/><circle cx="898.4" cy="849.4" r="3.3" class="st3"/><circle cx="878.9" cy="849.4" r="3.3" class="st3"/><circle cx="859.3" cy="849.4" r="3.3" class="st3"/><circle cx="839.8" cy="849.4" r="3.3" class="st3"/><circle cx="820.3" cy="849.4" r="3.3" class="st3"/><circle cx="800.8" cy="849.4" r="3.3" class="st3"/><circle cx="781.3" cy="849.4" r="3.3" class="st3"/><circle cx="761.7" cy="849.4" r="3.3" class="st3"/></g><g><circle cx="927.9" cy="838.5" r="3.3" class="st3"/><circle cx="908.4" cy="838.5" r="3.3" class="st3"/><circle cx="888.8" cy="838.5" r="3.3" class="st3"/><circle cx="869.3" cy="838.5" r="3.3" class="st3"/><circle cx="849.9" cy="838.5" r="3.3" class="st3"/><circle cx="830.3" cy="838.5" r="3.3" class="st3"/><circle cx="810.8" cy="838.5" r="3.3" class="st3"/><circle cx="791.2" cy="838.5" r="3.3" class="st3"/><circle cx="771.7" cy="838.5" r="3.3" class="st3"/></g><g><circle cx="937.4" cy="824.4" r="3.3" class="st3"/><circle cx="917.8" cy="824.4" r="3.3" class="st3"/><circle cx="898.4" cy="824.4" r="3.3" class="st3"/><circle cx="878.9" cy="824.4" r="3.3" class="st3"/><circle cx="859.3" cy="824.4" r="3.3" class="st3"/><circle cx="839.8" cy="824.4" r="3.3" class="st3"/><circle cx="820.3" cy="824.4" r="3.3" class="st3"/><circle cx="800.8" cy="824.4" r="3.3" class="st3"/><circle cx="781.3" cy="824.4" r="3.3" class="st3"/><circle cx="761.7" cy="824.4" r="3.3" class="st3"/></g><g><circle cx="927.9" cy="813.6" r="3.3" class="st3"/><circle cx="908.4" cy="813.6" r="3.3" class="st3"/><circle cx="888.8" cy="813.6" r="3.3" class="st3"/><circle cx="869.3" cy="813.6" r="3.3" class="st3"/><circle cx="849.9" cy="813.6" r="3.3" class="st3"/><circle cx="830.3" cy="813.6" r="3.3" class="st3"/><circle cx="810.8" cy="813.6" r="3.3" class="st3"/><circle cx="791.2" cy="813.6" r="3.3" class="st3"/><circle cx="771.7" cy="813.6" r="3.3" class="st3"/></g><g><circle cx="937.4" cy="799.4" r="3.3" class="st3"/><circle cx="917.8" cy="799.4" r="3.3" class="st3"/><circle cx="898.4" cy="799.4" r="3.3" class="st3"/><circle cx="878.9" cy="799.4" r="3.3" class="st3"/><circle cx="859.3" cy="799.4" r="3.3" class="st3"/><circle cx="839.8" cy="799.4" r="3.3" class="st3"/><circle cx="820.3" cy="799.4" r="3.3" class="st3"/><circle cx="800.8" cy="799.4" r="3.3" class="st3"/><circle cx="781.3" cy="799.4" r="3.3" class="st3"/><circle cx="761.7" cy="799.4" r="3.3" class="st3"/></g><g><circle cx="927.9" cy="788.5" r="3.3" class="st3"/><circle cx="908.4" cy="788.5" r="3.3" class="st3"/><circle cx="888.8" cy="788.5" r="3.3" class="st3"/><circle cx="869.3" cy="788.5" r="3.3" class="st3"/><circle cx="849.9" cy="788.5" r="3.3" class="st3"/><circle cx="830.3" cy="788.5" r="3.3" class="st3"/><circle cx="810.8" cy="788.5" r="3.3" class="st3"/><circle cx="791.2" cy="788.5" r="3.3" class="st3"/><circle cx="771.7" cy="788.5" r="3.3" class="st3"/></g><g><circle cx="937.4" cy="774.4" r="3.3" class="st3"/><circle cx="917.8" cy="774.4" r="3.3" class="st3"/><circle cx="898.4" cy="774.4" r="3.3" class="st3"/><circle cx="878.9" cy="774.4" r="3.3" class="st3"/><circle cx="859.3" cy="774.4" r="3.3" class="st3"/><circle cx="839.8" cy="774.4" r="3.3" class="st3"/><circle cx="820.3" cy="774.4" r="3.3" class="st3"/><circle cx="800.8" cy="774.4" r="3.3" class="st3"/><circle cx="781.3" cy="774.4" r="3.3" class="st3"/><circle cx="761.7" cy="774.4" r="3.3" class="st3"/></g><g><circle cx="927.9" cy="763.5" r="3.3" class="st3"/><circle cx="908.4" cy="763.5" r="3.3" class="st3"/><circle cx="888.8" cy="763.5" r="3.3" class="st3"/><circle cx="869.3" cy="763.5" r="3.3" class="st3"/><circle cx="849.9" cy="763.5" r="3.3" class="st3"/><circle cx="830.3" cy="763.5" r="3.3" class="st3"/><circle cx="810.8" cy="763.5" r="3.3" class="st3"/><circle cx="791.2" cy="763.5" r="3.3" class="st3"/><circle cx="771.7" cy="763.5" r="3.3" class="st3"/></g><g><circle cx="937.4" cy="749.4" r="3.3" class="st3"/><circle cx="917.8" cy="749.4" r="3.3" class="st3"/><circle cx="898.4" cy="749.4" r="3.3" class="st3"/><circle cx="878.9" cy="749.4" r="3.3" class="st3"/><circle cx="859.3" cy="749.4" r="3.3" class="st3"/><circle cx="839.8" cy="749.4" r="3.3" class="st3"/><circle cx="820.3" cy="749.4" r="3.3" class="st3"/><circle cx="800.8" cy="749.4" r="3.3" class="st3"/><circle cx="781.3" cy="749.4" r="3.3" class="st3"/><circle cx="761.7" cy="749.4" r="3.3" class="st3"/></g><g><circle cx="927.9" cy="738.4" r="3.3" class="st3"/><circle cx="908.4" cy="738.4" r="3.3" class="st3"/><circle cx="888.8" cy="738.4" r="3.3" class="st3"/><circle cx="869.3" cy="738.4" r="3.3" class="st3"/><circle cx="849.9" cy="738.4" r="3.3" class="st3"/><circle cx="830.3" cy="738.4" r="3.3" class="st3"/><circle cx="810.8" cy="738.4" r="3.3" class="st3"/><circle cx="791.2" cy="738.4" r="3.3" class="st3"/><circle cx="771.7" cy="738.4" r="3.3" class="st3"/></g></g><g><g><path d="M904.7,824.4H121.6c-3.4,0-6.2-2-6.2-4.4l0,0c0-2.4,2.8-4.4,6.2-4.4h783.1c3.4,0,6.2,2,6.2,4.4l0,0 C910.9,822.4,908.1,824.4,904.7,824.4z" class="st4"/></g></g><g><path d="M552.7,209.7H580c1.4,0,2.5-1.1,2.5-2.5l0,0c0-1.4-1.1-2.5-2.5-2.5h-27.2c-1.4,0-2.5,1.1-2.5,2.5l0,0 C550.2,208.6,551.4,209.7,552.7,209.7z" class="st5"/><path d="M511.7,209.7h27.2c1.4,0,2.5-1.1,2.5-2.5l0,0c0-1.4-1.1-2.5-2.5-2.5h-27.2c-1.4,0-2.5,1.1-2.5,2.5l0,0 C509.2,208.6,510.3,209.7,511.7,209.7z" class="st5"/><path d="M470.6,209.7h27.2c1.4,0,2.5-1.1,2.5-2.5l0,0c0-1.4-1.1-2.5-2.5-2.5h-27.2c-1.4,0-2.5,1.1-2.5,2.5l0,0 C468.1,208.6,469.2,209.7,470.6,209.7z" class="st5"/><g><path d="M280.8,524.4h569c8.5,0,15.4-6.9,15.4-15.4V140c0-8.5-6.9-15.4-15.4-15.4h-569c-8.5,0-15.4,6.9-15.4,15.4 v369.1C265.5,517.6,272.3,524.4,280.8,524.4z" class="st6"/><rect width="561.3" height="317.8" x="284.7" y="143.9" class="st7"/><path d="M309.3,201.1h512c4.1,0,7.4-3.3,7.4-7.4v-21.6c0-4.1-3.3-7.4-7.4-7.4h-512c-4.1,0-7.4,3.3-7.4,7.4v21.6 C301.9,197.8,305.2,201.1,309.3,201.1z" class="st7"/><path d="M797,183c0,5.6,4.5,10.1,10.1,10.1s10.1-4.5,10.1-10.1s-4.5-10.1-10.1-10.1S797,177.4,797,183z" class="st8"/><rect width="87.1" height="6.9" x="688.9" y="179.5" class="st9"/><rect width="87.1" height="6.9" x="576.5" y="179.5" class="st9"/><rect width="87.1" height="6.9" x="464.1" y="179.5" class="st9"/><rect width="87.1" height="6.9" x="351.7" y="179.5" class="st9"/><path d="M270.8,514.4h569c8.5,0,15.4-6.9,15.4-15.4V130c0-8.5-6.9-15.4-15.4-15.4h-569c-8.5,0-15.4,6.9-15.4,15.4 v369.1C255.5,507.6,262.3,514.4,270.8,514.4z" class="st1"/></g><g><path d="M671.1,251.8c0,22.3,18.1,40.4,40.4,40.4s40.4-18.1,40.4-40.4s-18.1-40.4-40.4-40.4S671.1,229.5,671.1,251.8 z M682.7,251.8c0-15.9,12.9-28.7,28.7-28.7s28.7,12.9,28.7,28.7c0,15.9-12.9,28.7-28.7,28.7S682.7,267.7,682.7,251.8z" class="st8"/><path d="M683.7,259.2c3.3,12.3,14.5,21.4,27.8,21.4c15.9,0,28.7-12.9,28.7-28.7c0-14.3-10.4-26.2-24.1-28.4v-11.7 c20.1,2.3,35.7,19.4,35.7,40.1c0,22.3-18.1,40.4-40.4,40.4c-19.8,0-36.2-14.2-39.7-33h12V259.2z" class="st6"/><path d="M689.7,233.1c-2.9-2.5-5.9-5-8.9-7.5c7.4-8.6,18.4-14.1,30.6-14.1c0.4,0,0.8,0,1.2,0v11.6 c-0.4,0-0.8,0-1.2,0C702.8,223.1,695,227,689.7,233.1z" class="st10"/></g><g><ellipse cx="710.4" cy="346.1" class="st11" rx="40.4" ry="40.4" transform="matrix(0.2298 -0.9732 0.9732 0.2298 210.297 957.8849)"/><path d="M710.3,305.6V346H670C670,323.7,688,305.6,710.3,305.6z" class="st8"/></g><g><path d="M704.1,409.3V480c0,4.4,3.5,7.9,7.9,7.9h135.3c4.4,0,7.9-3.5,7.9-7.9v-70.7c0-4.4-3.5-7.9-7.9-7.9H711.9 C707.6,401.4,704.1,404.9,704.1,409.3z" class="st12"/><path d="M694.1,399.3V470c0,4.4,3.5,7.9,7.9,7.9h135.3c4.4,0,7.9-3.5,7.9-7.9v-70.7c0-4.4-3.5-7.9-7.9-7.9H701.9 C697.6,391.4,694.1,394.9,694.1,399.3z" class="st13"/><path d="M724.8,414.9v6.2h110.9v-6.2H724.8z M835.6,426.5H724.8v6.2h110.9v-6.2H835.6z M835.6,438.1H724.8v6.2h110.9 v-6.2H835.6z M835.6,449.7H724.8v6.2h110.9v-6.2H835.6z M835.6,461.2h-28.3v6.2h28.3V461.2z" class="st8"/></g><g><path d="M270.2,138.4v70.7c0,4.4,3.5,7.9,7.9,7.9h186.4c4.4,0,7.9-3.5,7.9-7.9v-70.7c0-4.4-3.5-7.9-7.9-7.9H278.1 C273.7,130.5,270.2,134,270.2,138.4z" class="st8"/><path d="M297.5,144.1v6.2h155.4v-6.2H297.5z M452.9,155.6H297.5v6.2h155.4V155.6z M452.9,167.2H297.5v6.2h155.4 V167.2z M452.9,178.8H297.5v6.2h155.4V178.8z" class="st10"/></g><g><path d="M929,536.8c-0.4-0.3-0.4-0.9-0.1-1.3c1.3-1.4,2.5-2.9,3.7-4.4c0.3-0.4,0.9-0.4,1.3-0.1 c0.4,0.3,0.4,0.9,0.1,1.3c-1.2,1.5-2.5,3-3.8,4.4c-0.1,0.1-0.2,0.2-0.4,0.3C929.5,537.1,929.2,537,929,536.8z M938.1,525.4 c-0.4-0.3-0.5-0.8-0.2-1.2c1.7-2.4,3.3-4.9,4.9-7.4c0.3-0.4,0.8-0.5,1.2-0.3c0.4,0.3,0.6,0.8,0.3,1.2c-1.6,2.5-3.2,5.1-4.9,7.5 c-0.1,0.2-0.3,0.3-0.4,0.3C938.7,525.6,938.4,525.6,938.1,525.4z M947.5,510.3c-0.4-0.2-0.6-0.8-0.4-1.2c1.4-2.6,2.7-5.3,3.9-7.9 c0.2-0.4,0.7-0.7,1.2-0.4c0.4,0.2,0.6,0.7,0.4,1.2c-1.2,2.7-2.5,5.4-3.9,8.1c-0.1,0.2-0.3,0.4-0.5,0.4 C948,510.4,947.8,510.4,947.5,510.3z M954.9,494.1c-0.5-0.2-0.7-0.7-0.5-1.1c1-2.7,2-5.6,2.8-8.4c0.1-0.5,0.6-0.7,1.1-0.6 s0.7,0.6,0.6,1.1c-0.9,2.9-1.8,5.7-2.9,8.5c-0.1,0.3-0.3,0.4-0.5,0.5C955.3,494.2,955.1,494.2,954.9,494.1z M960.1,477.1 c-0.5-0.1-0.8-0.6-0.7-1.1c0.7-2.9,1.2-5.8,1.7-8.7c0.1-0.5,0.5-0.8,1-0.7c0.5,0.1,0.8,0.5,0.7,1c-0.5,2.9-1.1,5.9-1.7,8.8 c-0.1,0.3-0.3,0.5-0.6,0.6C960.5,477.1,960.3,477.1,960.1,477.1z M963.1,459.6c-0.5,0-0.8-0.5-0.8-1c0.3-2.9,0.4-5.9,0.5-8.8 c0-0.5,0.4-0.9,0.9-0.9s0.9,0.4,0.9,0.9c-0.1,3-0.3,6-0.5,8.9c0,0.4-0.3,0.7-0.6,0.8C963.3,459.6,963.2,459.6,963.1,459.6z M963.6,441.8c-0.5,0-0.9-0.4-0.9-0.8c-0.1-2.9-0.4-5.9-0.7-8.8c-0.1-0.5,0.3-0.9,0.8-1s0.9,0.3,1,0.8c0.3,3,0.6,6,0.7,8.9 c0,0.4-0.2,0.8-0.6,0.9C963.8,441.8,963.7,441.8,963.6,441.8z M961.7,424.1c-0.5,0.1-0.9-0.2-1-0.7c-0.5-2.9-1.2-5.8-1.9-8.6 c-0.1-0.5,0.2-1,0.6-1.1c0.5-0.1,1,0.2,1.1,0.6c0.7,2.9,1.4,5.8,1.9,8.8C962.5,423.5,962.2,424,961.7,424.1 C961.8,424.1,961.8,424.1,961.7,424.1z M957.5,406.8c-0.5,0.2-1-0.1-1.1-0.6c-0.2-0.5-0.3-1-0.5-1.4c-0.8-2.3-1.6-4.6-2.5-6.9 c-0.2-0.5,0-1,0.5-1.2s1,0,1.2,0.5c0.9,2.3,1.8,4.6,2.6,7c0.2,0.5,0.3,1,0.5,1.5C958.2,406.2,958,406.7,957.5,406.8L957.5,406.8z M949.8,389.9c-1.3-2.7-2.7-5.3-4.1-7.8c-0.2-0.4-0.1-1,0.3-1.2c0.4-0.2,1-0.1,1.2,0.3c1.5,2.6,2.9,5.2,4.2,7.9 c0.2,0.4,0,1-0.4,1.2h-0.1C950.5,390.5,950,390.3,949.8,389.9z M941.1,374.5c-1.6-2.5-3.4-4.9-5.1-7.2c-0.3-0.4-0.2-0.9,0.2-1.2 c0.4-0.3,0.9-0.2,1.2,0.2c1.8,2.4,3.6,4.8,5.2,7.3c0.3,0.4,0.2,1-0.3,1.2c-0.1,0-0.1,0.1-0.2,0.1 C941.7,375,941.3,374.9,941.1,374.5z M899,375.8c-3,0.5-6.2,0.4-9.2-0.5c-0.5-0.1-0.8-0.6-0.6-1.1c0.1-0.5,0.6-0.8,1.1-0.6 c2.8,0.8,5.7,0.9,8.4,0.4c0.5-0.1,0.9,0.2,1,0.7c0.1,0.4-0.2,0.9-0.6,1C899.1,375.8,899,375.8,899,375.8z M906.2,371.9 c-0.3-0.4-0.2-0.9,0.2-1.2c2.2-1.7,4.1-3.8,5.6-6.4c0.3-0.4,0.8-0.6,1.2-0.3c0.4,0.3,0.6,0.8,0.3,1.2c-1.7,2.7-3.7,5.1-6.1,6.9 c-0.1,0.1-0.2,0.1-0.3,0.1C906.8,372.3,906.4,372.2,906.2,371.9z M930.3,360.5c-0.4-0.5-0.8-0.9-1.2-1.4c-1.6-1.8-3.3-3.5-4.9-5 c-0.4-0.3-0.4-0.9,0-1.3c0.3-0.4,0.9-0.4,1.3,0c1.7,1.5,3.3,3.2,5,5.1c0.4,0.5,0.8,0.9,1.2,1.4c0.3,0.4,0.3,0.9-0.1,1.3 c-0.1,0.1-0.2,0.1-0.3,0.2C930.9,360.9,930.5,360.8,930.3,360.5z M881.7,370.8c-1.8-1.7-3-3.7-3.8-5.9l-0.1-0.5 c-0.2-0.6-0.3-1.2-0.4-1.8c-0.1-0.5,0.2-0.9,0.7-1s0.9,0.2,1,0.7s0.2,1.1,0.4,1.6l0.1,0.4c0.7,2,1.8,3.7,3.4,5.2 c0.4,0.3,0.4,0.9,0,1.3c-0.1,0.1-0.2,0.2-0.4,0.2C882.3,371.1,881.9,371.1,881.7,370.8z M915.9,357.4c-0.5-0.1-0.8-0.6-0.7-1.1 c0.7-2.7,1-5.6,0.9-8.4c-2.1-1.4-4.3-2.5-6.4-3.3c-0.5-0.2-0.7-0.7-0.5-1.2s0.7-0.7,1.2-0.5c2.6,1.1,5.3,2.5,8,4.3 c0.4,0.3,0.5,0.8,0.2,1.2c-0.2,0.2-0.4,0.4-0.7,0.4c0,2.6-0.3,5.3-0.9,7.9c-0.1,0.3-0.3,0.5-0.6,0.6 C916.2,357.4,916,357.4,915.9,357.4z M879.1,354.6c-0.4-0.2-0.6-0.7-0.4-1.2c1.2-2.7,3.2-5.2,5.7-7.2c0.4-0.3,0.9-0.3,1.3,0.1 c0.3,0.4,0.3,0.9-0.1,1.3c-2.3,1.9-4.1,4.2-5.2,6.6c-0.1,0.2-0.3,0.4-0.5,0.5C879.6,354.7,879.3,354.7,879.1,354.6z M915.8,339.8 c-0.5,0.1-1-0.2-1.1-0.6c-0.3-1-0.6-2-0.9-2.9c-0.6-1.7-1.3-3.5-2.1-5.3c-0.2-0.4,0-1,0.4-1.2c0.5-0.2,1,0,1.2,0.4 c0.8,1.8,1.6,3.7,2.2,5.4c0.3,1,0.7,2,0.9,3.1C916.6,339.1,916.3,339.6,915.8,339.8C915.9,339.8,915.8,339.8,915.8,339.8z M901.4,342.5c-0.7-0.1-1.3-0.1-2-0.1c-2.1,0-4.3,0.3-6.4,1c-0.5,0.2-1-0.1-1.1-0.6c-0.2-0.5,0.1-1,0.6-1.1l0,0 c2.3-0.8,4.7-1.1,7-1.1c0.7,0,1.4,0.1,2.1,0.1c0.5,0,0.8,0.5,0.8,1c0,0.4-0.3,0.7-0.6,0.8C901.6,342.5,901.5,342.5,901.4,342.5z M907.6,323.2c-1-1.6-2-3.2-3.1-5c-0.5-0.8-1.1-1.6-1.7-2.4c-0.3-0.4-0.2-1,0.2-1.2c0.4-0.3,1-0.2,1.2,0.2 c0.6,0.8,1.1,1.6,1.7,2.5c1.2,1.8,2.2,3.4,3.2,5c0.3,0.4,0.1,1-0.3,1.2c-0.1,0-0.1,0.1-0.2,0.1 C908.3,323.7,907.8,323.5,907.6,323.2z M897.5,308.6c-1.8-2.3-3.7-4.6-5.6-6.8c-0.3-0.4-0.3-0.9,0.1-1.3c0.4-0.3,0.9-0.3,1.3,0.1 c2,2.2,3.9,4.6,5.7,6.9c0.3,0.4,0.2,0.9-0.2,1.2c-0.1,0.1-0.2,0.1-0.3,0.1C898.2,309,897.8,308.9,897.5,308.6z M885.9,295.3 c-2.1-2.1-4.2-4.2-6.3-6.2c-0.4-0.3-0.4-0.9-0.1-1.3c0.3-0.4,0.9-0.4,1.3-0.1c2.2,2,4.3,4.1,6.4,6.2c0.3,0.4,0.3,0.9,0,1.3 c-0.1,0.1-0.2,0.2-0.3,0.2C886.5,295.6,886.2,295.6,885.9,295.3z M872.9,283.3c-2.3-1.9-4.6-3.7-7-5.5c-0.4-0.3-0.5-0.8-0.2-1.2 c0.3-0.4,0.8-0.5,1.2-0.2c2.4,1.8,4.8,3.6,7,5.5c0.4,0.3,0.4,0.9,0.1,1.3c-0.1,0.1-0.2,0.2-0.4,0.3 C873.5,283.6,873.1,283.5,872.9,283.3z M858.7,272.8c-2.5-1.6-5-3.2-7.5-4.7c-0.4-0.2-0.6-0.8-0.3-1.2c0.2-0.4,0.8-0.6,1.2-0.3 c2.6,1.5,5.1,3.1,7.6,4.7c0.4,0.3,0.5,0.8,0.3,1.2c-0.1,0.2-0.3,0.3-0.5,0.4C859.2,273,858.9,273,858.7,272.8z M843.4,263.9 c-2.6-1.3-5.3-2.6-8-3.8c-0.4-0.2-0.7-0.7-0.5-1.2c0.2-0.4,0.7-0.6,1.2-0.5c2.7,1.2,5.4,2.5,8.1,3.9c0.4,0.2,0.6,0.8,0.4,1.2 c-0.1,0.2-0.3,0.4-0.5,0.4C843.9,264,843.6,264,843.4,263.9z" class="st14"/></g><g><polygon points="789.5 247.7 838 263.1 836.6 253" class="st15"/><polygon points="789.5 247.7 843.8 240.6 829.4 265.4" class="st6"/><polygon points="789.5 247.7 834.9 255.9 838 263.1 838.6 249.5" class="st15"/></g><g><path d="M567.1,397.8L567.1,397.8c6,0,10.8-4.8,10.8-10.8V280.4c0-6-4.8-10.8-10.8-10.8l0,0c-6,0-10.8,4.8-10.8,10.8 V387C556.3,393,561.1,397.8,567.1,397.8z" class="st8"/><path d="M567.1,397.8L567.1,397.8c6,0,10.8-4.8,10.8-10.8v-61.4c0-6-4.8-10.8-10.8-10.8l0,0 c-6,0-10.8,4.8-10.8,10.8V387C556.3,393,561.1,397.8,567.1,397.8z" class="st16"/><path d="M527.8,397.8L527.8,397.8c6,0,10.8-4.8,10.8-10.8V280.4c0-6-4.8-10.8-10.8-10.8l0,0c-6,0-10.8,4.8-10.8,10.8 V387C517,393,521.9,397.8,527.8,397.8z" class="st8"/><path d="M527.8,397.8L527.8,397.8c6,0,10.8-4.8,10.8-10.8v-88.5c0-6-4.8-10.8-10.8-10.8l0,0 c-6,0-10.8,4.8-10.8,10.8V387C517,393,521.9,397.8,527.8,397.8z" class="st16"/><path d="M488.6,397.8L488.6,397.8c6,0,10.8-4.8,10.8-10.8V280.4c0-6-4.8-10.8-10.8-10.8l0,0c-6,0-10.8,4.8-10.8,10.8 V387C477.7,393,482.6,397.8,488.6,397.8z" class="st8"/><path d="M488.6,397.8L488.6,397.8c6,0,10.8-4.8,10.8-10.8v-61.4c0-6-4.8-10.8-10.8-10.8l0,0 c-6,0-10.8,4.8-10.8,10.8V387C477.7,393,482.6,397.8,488.6,397.8z" class="st16"/><path d="M449.3,397.8L449.3,397.8c6,0,10.8-4.8,10.8-10.8V280.4c0-6-4.8-10.8-10.8-10.8l0,0c-6,0-10.8,4.8-10.8,10.8 V387C438.4,393,443.3,397.8,449.3,397.8z" class="st8"/><path d="M449.3,397.8L449.3,397.8c6,0,10.8-4.8,10.8-10.8v-34.3c0-6-4.8-10.8-10.8-10.8l0,0 c-6,0-10.8,4.8-10.8,10.8V387C438.4,393,443.3,397.8,449.3,397.8z" class="st16"/><path d="M410,397.8L410,397.8c6,0,10.8-4.8,10.8-10.8V280.4c0-6-4.8-10.8-10.8-10.8l0,0c-6,0-10.8,4.8-10.8,10.8V387 C399.2,393,404,397.8,410,397.8z" class="st8"/><path d="M410,397.8L410,397.8c6,0,10.8-4.8,10.8-10.8v-61.4c0-6-4.8-10.8-10.8-10.8l0,0c-6,0-10.8,4.8-10.8,10.8 V387C399.2,393,404,397.8,410,397.8z" class="st16"/><path d="M370.7,397.8L370.7,397.8c6,0,10.8-4.8,10.8-10.8V280.4c0-6-4.8-10.8-10.8-10.8l0,0c-6,0-10.8,4.8-10.8,10.8 V387C359.9,393,364.7,397.8,370.7,397.8z" class="st8"/><path d="M370.7,397.8L370.7,397.8c6,0,10.8-4.8,10.8-10.8v-7.3c0-6-4.8-10.8-10.8-10.8l0,0c-6,0-10.8,4.8-10.8,10.8 v7.3C359.9,393,364.7,397.8,370.7,397.8z" class="st17"/><g><g><polygon points="361 414.1 601.4 414.1 601.4 269.6 599.4 269.6 599.4 412.1 361 412.1" class="st18"/></g><g><polygon points="590.3 281.1 600.4 271 610.4 281.1 611.8 279.7 600.4 268.2 588.9 279.7" class="st18"/></g><g><polygon points="371.1 424.5 372.5 423.1 362.4 413.1 372.5 403 371.1 401.6 359.6 413.1" class="st18"/></g></g></g><g><g><rect width="184.8" height="248.9" x="141.4" y="202.4" class="st12"/></g><g><path d="M160.8,410.9c4.6,0,9.2,0,13.9,0V335h19.9v75.9c1.5,0,3.1,0,4.6,0V398h19.9v12.9c1.9,0,3.9,0,5.8,0v-66.2 h19.9v66.2c1.1,0,2.3,0,3.4,0v-39.4h19.9v39.4c1.1,0,2.3,0,3.4,0v-56.3h19.9v56.3c4.1,0,8.2,0,12.3,0c0-29.6,0-59.2,0-88.8 c0-4.3,0-8.5,0-12.8c0-2,3.1-2,3.1,0c0,30.1,0,60.2,0,90.3c0,4.3,0,8.5,0,12.8c0,0.8-0.7,1.5-1.5,1.5c-42.3,0-84.5,0-126.8,0 c-6,0-11.9,0-17.9,0C158.8,414,158.8,410.9,160.8,410.9z" class="st8"/></g><g><path d="M256.5,239.4c-16.7,0-33.5,0-50.2,0c-3.9,0-3.9-6.1,0-6.1c16.7,0,33.5,0,50.2,0 C260.5,233.3,260.5,239.4,256.5,239.4L256.5,239.4z" class="st8"/></g><g><path d="M305.5,252.5c-41.9,0-83.7,0-125.6,0c-6,0-12,0-18.1,0c-2,0-2-3.1,0-3.1c41.9,0,83.7,0,125.6,0 c6,0,12,0,18.1,0C307.4,249.4,307.4,252.5,305.5,252.5L305.5,252.5z" class="st8"/></g><g><path d="M305.5,263.6c-41.9,0-83.7,0-125.6,0c-6,0-12,0-18.1,0c-2,0-2-3.1,0-3.1c41.9,0,83.7,0,125.6,0 c6,0,12,0,18.1,0C307.4,260.6,307.4,263.6,305.5,263.6L305.5,263.6z" class="st8"/></g><g><path d="M305.5,274.8c-26,0-52,0-78,0c-2,0-2-3.1,0-3.1c26,0,52,0,78,0C307.4,271.7,307.4,274.8,305.5,274.8 L305.5,274.8z" class="st8"/></g><g><path d="M213.4,274.8c-17.5,0-35.1,0-52.6,0c-2,0-2-3.1,0-3.1c17.5,0,35.1,0,52.6,0 C215.3,271.7,215.3,274.8,213.4,274.8L213.4,274.8z" class="st8"/></g><g><path d="M305.5,286.3c-10.2,0-20.4,0-30.6,0c-2,0-2-3.1,0-3.1c10.2,0,20.4,0,30.6,0 C307.4,283.3,307.4,286.3,305.5,286.3L305.5,286.3z" class="st8"/></g><g><path d="M262,286.3c-10.2,0-20.4,0-30.6,0c-2,0-2-3.1,0-3.1c10.2,0,20.4,0,30.6,0C264,283.3,264,286.3,262,286.3 L262,286.3z" class="st8"/></g><g><path d="M279.4,296.2c-19.5,0-39,0-58.5,0c-2,0-2-3.1,0-3.1c19.5,0,39,0,58.5,0 C281.4,293.2,281.4,296.2,279.4,296.2L279.4,296.2z" class="st8"/></g><g><path d="M305.5,296.2c-5.1,0-10.2,0-15.3,0c-2,0-2-3.1,0-3.1c5.1,0,10.2,0,15.3,0 C307.4,293.2,307.4,296.2,305.5,296.2L305.5,296.2z" class="st8"/></g><g><path d="M214,296.2c-7.3,0-14.5,0-21.8,0c-2,0-2-3.1,0-3.1c7.3,0,14.5,0,21.8,0C216,293.2,216,296.2,214,296.2 L214,296.2z" class="st8"/></g><g><path d="M182.5,296.2c-7.3,0-14.5,0-21.8,0c-2,0-2-3.1,0-3.1c7.3,0,14.5,0,21.8,0 C184.5,293.2,184.5,296.2,182.5,296.2L182.5,296.2z" class="st8"/></g><g><path d="M219,286.3c-19.4,0-38.8,0-58.2,0c-2,0-2-3.1,0-3.1c19.4,0,38.8,0,58.2,0 C220.9,283.3,220.9,286.3,219,286.3L219,286.3z" class="st8"/></g><path d="M130.5,191.4h186.6v250.8H130.5V191.4z M315.3,193.3h-183v247.1h183V193.3z" class="st13"/></g><g><g><g><g><path d="M343.1,709.8c0,28.2,0,56.4,0,84.6c0,4.5-7,4.5-7,0c0-28.2,0-56.4,0-84.6 C336.2,705.3,343.1,705.3,343.1,709.8z" class="st6"/></g></g><g><polygon points="351.6 731.9 327.7 731.9 327.7 688.8 351.6 691.8" class="st6"/></g><g><path d="M233.7,480.4c6.7-3,11.6-1.7,15.3,2c10,10.1,3.2,54.9,4.7,64.9c4.8,31.3,10.2,66.4,29.8,92.4 c26,34.5,66.5,29.1,103.1,16.7c7-2.4,58.6-23,62.9-12.6c5.8,14-59,70.7-152.4,42C257,673.4,228.3,645,216.6,605 C208.9,578.6,199.4,495.7,233.7,480.4z" class="st19"/></g><g><g><path d="M288.7,790.9c32,0,63.9,0,95.9,0c4.5,0,4.5,7,0,7c-32,0-63.9,0-95.9,0 C284.2,797.9,284.2,790.9,288.7,790.9z" class="st6"/></g></g><g><path d="M290.8,789.5c7.6,0,13.8,6.2,13.8,13.8s-6.2,13.8-13.8,13.8c-7.6,0-13.8-6.2-13.8-13.8 S283.2,789.5,290.8,789.5z" class="st6"/></g><g><path d="M390.5,789.5c7.6,0,13.8,6.2,13.8,13.8s-6.2,13.8-13.8,13.8c-7.6,0-13.8-6.2-13.8-13.8 S382.9,789.5,390.5,789.5z" class="st6"/></g><path d="M469.3,633c0,0-4.5,91.9,0,163h-17c0,0-50.3-126.9-33.7-157.5C435.2,607.8,469.3,633,469.3,633z" class="st20"/><path d="M373.4,347.9c21.6,0,19.3,17,18.2,23.8c-1.1,6.8-13.6,34.1-29.5,31.8c-11.2-1.6-17.9-7.7-21.3-12.8 c-1.4-2.1-2.2-4-2.6-5.4c-1.1-4.5,3.4-19.3,7.9-27.2C346.1,358.2,351.8,347.9,373.4,347.9z" class="st21"/><path d="M365.1,388.3c0,0-18.6,19.3-22.1,24.4c-3.4,5.1-13.4-6.8-13.4-6.8l20.5-34.1L365.1,388.3z" class="st21"/><path d="M285.5,464.4c6.8-49.4,44.1-58.6,44.1-58.6l22.2,6.8c46.7,36.8,11.3,108.9,6.2,124.2 c-5.1,15.3-9.6,42.6-9.6,42.6c-50.5,20.9-62.9-9.4-62.9-9.4C299.1,548.8,278.7,513.9,285.5,464.4z" class="st8"/><path d="M285.5,570.1c12.8,23.5,62.9,9,62.9,9s51.6,2.5,94.8,7.2c43.2,4.8,61.4,9.4,70.8,53.2 c9.5,43.7,54.1,156.4,54.1,156.4h-19.3C484,728.1,484,659.2,462.5,649.3c-21.6-10-62.5,8.9-86.9,12.5S293.2,679,275,637.4 C256.8,595.8,285.5,570.1,285.5,570.1z" class="st20"/><path d="M316.5,429.7c4.9-4.7,12.4-6,19-4.7c6.7,1.3,12.7,4.8,18.1,8.9c13.9,10.2,25.3,23.6,34.1,38.3 c8.1,13.5,14.7,28.8,27.4,38.2c9.2,6.9,20.7,9.8,31.9,12.6c22.3,5.6,44.6,11.2,66.9,16.8c0,2.1-0.1,4.2-0.1,6.3 c-31,1.4-62.2,1.1-93.2-0.9c-24.1-1.5-36.3-13-54.4-27.7c-13.9-11.3-26.8-23.8-38.5-37.4c-7.3-8.5-14.4-17.9-16.6-28.9 c-1.2-6.2-0.6-13,2.6-18.3C314.6,431.8,315.5,430.7,316.5,429.7z" class="st8"/><path d="M568.1,796c12.2,8.5,22.4,12.5,26,17.2c0.7,1,0.1,2.3-1.2,2.4c-9.7,0.6-42,2.2-44.1-3.1 c-2.6-6.2,0-16.5,0-16.5L568.1,796L568.1,796z" class="st22"/><path d="M469.3,796c12.2,8.5,22.4,12.5,26,17.2c0.7,1,0.1,2.3-1.2,2.4c-9.7,0.6-39.2,4.1-41.4-1.2 c-2.6-6.2-0.5-18.4-0.5-18.4H469.3z" class="st22"/><path d="M532,539.9c4.8,3.8,9.7,13.1,1.4,8.9c-8.2-4.3-19.6-2.6-19.6-2.6l0.1-6.3C514,539.9,527.2,536.2,532,539.9 z" class="st21"/><path d="M335.3,362.2c2.8-6.5,10.9-16.5,25.1-23.1c14.3-6.6,22.8,0.4,29,5.3c6.3,4.9,11.5,6.9,15.8,12.2 c4.3,5.2-5.4,0.7,0,5.9c5.4,5.2,16.1,24.7,9.5,19.8c-6.6-4.9-10.7-15.6-9.5-8.7s0.5,12.2-2.3,10.4c-1.9-1.2-6.5-6.4-9.3-9.6 c-0.8-1.1-2.2-2.6-2.2-2.6s0.9,1.1,2.2,2.6c0.9,1.2,1.1,2-1.4,0.4c-5-3.1-3-8.7-9.4-9.6s-9,3.1-14.4,7.3 c-5.4,4.2-5.7,7.7-9.9,3.7c-4.2-4-4.5-8.8-7.3-4.7c-2.8,4.1-1.5,10.5-0.3,12.8s-4.2,7.3-5.6,9.5s-3.1,5-3.1,5s-2.8-3.8-4.4-8.2 c-1.6-4.3-7.7-4.4-4.4-11.8C339.5,365.7,332.7,368.4,335.3,362.2z" class="st19"/><path d="M393.7,374.4c-1.3-1.5-2.2-2.6-2.2-2.6S392.9,373.2,393.7,374.4z" class="st14"/></g><g><path d="M669.9,560.5c-0.9,0-1.7,0-2.6,0c0-0.9,0-1.7,0-2.6C668.2,558.8,669.1,559.7,669.9,560.5z" class="st23"/><path d="M367.7,557.9c0,0.9,0,1.7,0,2.6c-0.9,0-1.7,0-2.6,0C366,559.7,366.8,558.8,367.7,557.9z" class="st23"/><path d="M365.1,555.4c61.3,0,122.5,0,183.8,0c97.6,0-43.4,0,54.1,0c22.3,0,44.6,0,66.9,0c1.4,0,2.6,1.2,2.6,2.6 c0,74.4,0,148.8,0,223.2c0,10.5,0,21,0,31.6c0,3.3-5.1,3.3-5.1,0c0-74.4,0-148.8,0-223.2c0-9.7,0-19.3,0-29c0.9,0,1.7,0,2.6,0 c-0.9-0.9-1.7-1.7-2.6-2.6c0,0.9,0,1.7,0,2.6c-60.4,0-137.8,0-235.4,0c-21.4,0-42.9,0-64.3,0c0-0.9,0-1.7,0-2.6 c-0.9,0.9-1.7,1.7-2.6,2.6c0.9,0,1.7,0,2.6,0c0,74.8,0,149.6,0,224.4c0,10.6,0,21.3,0,31.9c0,3.3-5.1,3.3-5.1,0 c0-75.7,0-151.3,0-227c0-10.6,0-21.3,0-31.9C362.5,556.6,363.7,555.4,365.1,555.4z" class="st23"/></g><g><path d="M564.2,551.8c0-0.1,0.1-0.2,0.2-0.4c0.3,0,0.6,0,0.9,0.1C564.8,551.4,564.4,551.6,564.2,551.8z" class="st4"/><path d="M428.2,551.5c36.2,0,72.4,0,108.6,0c7.9,0,15.9,0,23.8,0c1.1,0,2.5-0.2,3.7-0.1c-0.1,0.2-0.1,0.3-0.2,0.4 c-0.5,0.5-0.5,1.3,0,0c0.2-0.2,0.6-0.4,1-0.3c-0.3-0.1-0.6-0.1-0.9-0.1c0-0.1,0.1-0.2,0.1-0.4c2.4-6.6,7.9-13.2,11.5-19.2 c5.8-9.7,11.5-19.4,17.3-29c9.4-15.7,18.7-31.4,28.1-47.1c1.7-2.8,6.1-0.3,4.4,2.6c-18.5,31.1-37.1,62.2-55.6,93.3 c-1.7,2.9-2.2,4.5-5.5,5.1c-5.3,1.1-12,0-17.4,0c-22.9,0-45.8,0-68.7,0c-16.8,0-33.6,0-50.3,0 C424.9,556.7,424.9,551.5,428.2,551.5z" class="st4"/></g></g><g><path d="M132.4,490.8c-2.4-1.8-4.7-3.6-7.1-5.4c-0.4-0.3-0.5-0.9-0.2-1.2c0.3-0.4,0.9-0.5,1.2-0.2 c2.4,1.8,4.7,3.6,7.1,5.4c0.4,0.3,0.5,0.9,0.2,1.2c-0.2,0.2-0.4,0.4-0.7,0.4C132.8,491,132.6,490.9,132.4,490.8z M118.3,479.9 c-2.3-1.8-4.7-3.7-7-5.5c-0.4-0.3-0.4-0.9-0.1-1.3s0.9-0.4,1.3-0.1c2.3,1.9,4.6,3.7,7,5.5c0.4,0.3,0.5,0.9,0.2,1.2 c-0.2,0.2-0.4,0.3-0.7,0.3C118.7,480.1,118.5,480.1,118.3,479.9z M104.4,468.8c-2.3-1.9-4.6-3.8-6.8-5.7 c-0.4-0.3-0.4-0.9-0.1-1.3s0.9-0.4,1.3-0.1c2.2,1.9,4.5,3.8,6.8,5.7c0.4,0.3,0.4,0.9,0.1,1.3c-0.2,0.2-0.4,0.3-0.7,0.3 C104.8,469,104.6,468.9,104.4,468.8z M90.9,457.1c-2.2-2-4.4-4-6.6-6c-0.4-0.3-0.4-0.9,0-1.3c0.3-0.4,0.9-0.4,1.3,0 c2.2,2,4.4,4,6.6,6c0.4,0.3,0.4,0.9,0.1,1.3c-0.2,0.2-0.4,0.3-0.7,0.3C91.3,457.4,91.1,457.3,90.9,457.1z M77.9,445 c-2.1-2.1-4.3-4.2-6.3-6.3c-0.3-0.4-0.3-0.9,0-1.3c0.4-0.3,0.9-0.3,1.3,0c2,2.1,4.1,4.2,6.2,6.3c0.4,0.3,0.4,0.9,0,1.3 c-0.2,0.2-0.4,0.3-0.6,0.3C78.3,445.2,78,445.1,77.9,445z M65.5,432.1c-2-2.2-4-4.5-5.9-6.7c-0.3-0.4-0.3-0.9,0.1-1.3 s0.9-0.3,1.3,0.1c1.9,2.2,3.8,4.5,5.8,6.7c0.3,0.4,0.3,0.9-0.1,1.3c-0.2,0.2-0.4,0.2-0.6,0.2C65.9,432.4,65.7,432.3,65.5,432.1z M54,418.4c-1.8-2.4-3.6-4.8-5.3-7.2c-0.3-0.4-0.2-1,0.2-1.2c0.4-0.3,1-0.2,1.2,0.2c1.7,2.4,3.5,4.8,5.3,7.1 c0.3,0.4,0.2,0.9-0.2,1.2c-0.2,0.1-0.4,0.2-0.5,0.2C54.5,418.7,54.2,418.6,54,418.4z M43.7,403.8c-1.6-2.5-3.2-5.1-4.7-7.6 c-0.2-0.4-0.1-1,0.3-1.2c0.4-0.2,1-0.1,1.2,0.3c1.5,2.5,3,5.1,4.6,7.6c0.3,0.4,0.1,1-0.3,1.2c-0.1,0.1-0.3,0.1-0.5,0.1 C44.1,404.2,43.9,404.1,43.7,403.8z M34.7,388.4c-1.2-2.4-2.4-4.9-3.5-7.3l-0.3-0.7c-0.2-0.4,0-1,0.5-1.2c0.4-0.2,1,0,1.2,0.5 l0.3,0.7c1.1,2.4,2.3,4.9,3.5,7.2c0.2,0.4,0.1,1-0.4,1.2c-0.1,0.1-0.3,0.1-0.4,0.1C35.2,388.8,34.9,388.7,34.7,388.4z M27.5,372 c-1-2.8-2-5.6-2.8-8.5c-0.1-0.5,0.1-1,0.6-1.1s1,0.1,1.1,0.6c0.8,2.8,1.8,5.7,2.8,8.4c0.2,0.5-0.1,1-0.5,1.1 c-0.1,0-0.2,0.1-0.3,0.1C28,372.6,27.6,372.4,27.5,372z M22.5,354.8c-0.6-2.9-1.2-5.9-1.7-8.8c-0.1-0.5,0.3-0.9,0.7-1 c0.5-0.1,0.9,0.3,1,0.7c0.5,2.9,1,5.8,1.6,8.7c0.1,0.5-0.2,1-0.7,1.1c-0.1,0-0.1,0-0.2,0C23,355.5,22.6,355.2,22.5,354.8z M19.8,337.1c-0.3-3-0.4-6-0.5-8.9c0-0.5,0.4-0.9,0.9-0.9c0.4,0,0.9,0.4,0.9,0.9c0.1,2.9,0.2,5.9,0.5,8.8c0,0.5-0.3,0.9-0.8,1 h-0.1C20.2,337.9,19.8,337.6,19.8,337.1z M20.2,320.1c-0.5,0-0.9-0.4-0.8-0.9c0.1-3,0.4-6,0.7-8.9c0.1-0.5,0.5-0.8,1-0.8 c0.5,0.1,0.8,0.5,0.8,1c-0.3,2.9-0.6,5.9-0.7,8.8C21.1,319.8,20.7,320.2,20.2,320.1C20.2,320.2,20.2,320.2,20.2,320.1z M22.1,302.5c-0.5-0.1-0.8-0.6-0.7-1c0.6-3,1.2-5.9,2-8.7c0.1-0.5,0.6-0.8,1.1-0.6c0.5,0.1,0.8,0.6,0.6,1.1 c-0.8,2.8-1.4,5.7-2,8.6c-0.1,0.4-0.5,0.7-0.9,0.7C22.2,302.5,22.2,302.5,22.1,302.5z M26.7,285.3c-0.5-0.2-0.7-0.7-0.5-1.1 c1-2.8,2.2-5.6,3.5-8.3c0.2-0.4,0.7-0.6,1.2-0.4c0.4,0.2,0.6,0.7,0.4,1.2c-1.2,2.6-2.4,5.4-3.4,8.1c-0.1,0.4-0.5,0.6-0.8,0.6 C26.9,285.3,26.8,285.3,26.7,285.3z M34.1,269.1c-0.4-0.3-0.6-0.8-0.3-1.2c1.5-2.6,3.2-5.1,5-7.5c0.3-0.4,0.8-0.5,1.2-0.2 s0.5,0.8,0.2,1.2c-1.7,2.3-3.4,4.8-4.9,7.3c-0.2,0.3-0.5,0.4-0.8,0.4C34.4,269.3,34.3,269.2,34.1,269.1z M205.9,264l-0.7-0.6 c-0.4-0.3-0.4-0.9-0.1-1.3c0.3-0.4,0.9-0.4,1.3-0.1l0.7,0.6c0.4,0.3,0.4,0.9,0.1,1.3c-0.2,0.2-0.4,0.3-0.7,0.3 C206.3,264.2,206.1,264.2,205.9,264z M198.3,257.9c-2.4-1.8-4.8-3.6-7.2-5.2c-0.4-0.3-0.5-0.8-0.2-1.2s0.8-0.5,1.2-0.2 c2.4,1.7,4.8,3.4,7.2,5.3c0.4,0.3,0.5,0.9,0.2,1.2c-0.2,0.2-0.4,0.4-0.7,0.4C198.7,258.1,198.5,258,198.3,257.9z M44.5,254.7 c-0.4-0.3-0.4-0.9-0.1-1.3c2-2.2,4.2-4.3,6.4-6.3c0.4-0.3,0.9-0.3,1.3,0.1c0.3,0.4,0.3,0.9-0.1,1.3c-2.2,1.9-4.3,4-6.3,6.2 c-0.2,0.2-0.4,0.3-0.7,0.3C44.9,255,44.7,254.9,44.5,254.7z M183.8,247.9c-2.5-1.6-5.1-3.1-7.6-4.5c-0.4-0.2-0.6-0.8-0.4-1.2 c0.2-0.4,0.8-0.6,1.2-0.4c2.6,1.4,5.2,2.9,7.7,4.5c0.4,0.3,0.5,0.8,0.3,1.2c-0.2,0.3-0.5,0.4-0.8,0.4 C184.1,248,183.9,247.9,183.8,247.9z M57.7,242.8c-0.3-0.4-0.2-1,0.2-1.2c2.4-1.7,5-3.3,7.6-4.8c0.4-0.2,1-0.1,1.2,0.3 c0.2,0.4,0.1,1-0.3,1.2c-2.6,1.4-5.1,3-7.4,4.7c-0.2,0.1-0.3,0.2-0.5,0.2C58.1,243.2,57.9,243.1,57.7,242.8z M168.3,239.3 c-2.7-1.3-5.4-2.5-8.1-3.6c-0.5-0.2-0.7-0.7-0.5-1.2s0.7-0.7,1.2-0.5c2.7,1.1,5.5,2.3,8.2,3.6c0.4,0.2,0.6,0.7,0.4,1.2 c-0.2,0.3-0.5,0.5-0.8,0.5C168.5,239.4,168.4,239.4,168.3,239.3z M73.1,234c-0.2-0.5,0-1,0.5-1.2c2.7-1.2,5.5-2.2,8.4-3.2 c0.5-0.1,1,0.1,1.1,0.6c0.2,0.5-0.1,1-0.6,1.1c-2.8,0.9-5.6,2-8.2,3.1c-0.1,0.1-0.2,0.1-0.4,0.1C73.6,234.5,73.2,234.3,73.1,234z M151.9,232.7c-2.8-0.9-5.7-1.8-8.5-2.5c-0.5-0.1-0.8-0.6-0.6-1.1c0.1-0.5,0.6-0.8,1.1-0.6c2.8,0.7,5.7,1.6,8.6,2.6 c0.5,0.2,0.7,0.7,0.6,1.1c-0.1,0.4-0.5,0.6-0.8,0.6C152.1,232.7,152,232.7,151.9,232.7z M89.9,228.3c-0.1-0.5,0.2-1,0.7-1.1 c2.9-0.7,5.8-1.2,8.8-1.6c0.5-0.1,0.9,0.3,1,0.8s-0.3,0.9-0.8,1c-2.9,0.4-5.8,0.9-8.7,1.6c-0.1,0-0.1,0-0.2,0 C90.4,229,90,228.7,89.9,228.3z M134.8,228.2l-0.7-0.1c-2.7-0.5-5.4-0.9-8-1.1c-0.5-0.1-0.8-0.5-0.8-1c0.1-0.5,0.5-0.9,1-0.8 c2.7,0.3,5.5,0.7,8.2,1.2l0.7,0.1c0.5,0.1,0.8,0.6,0.7,1s-0.5,0.7-0.9,0.7C134.9,228.3,134.9,228.2,134.8,228.2z M107.5,225.7 c0-0.5,0.3-0.9,0.8-0.9c3-0.2,6-0.2,9-0.1c0.5,0,0.9,0.4,0.9,0.9s-0.5,0.9-0.9,0.9c-2.9-0.1-5.9,0-8.8,0.1l0,0 C107.9,226.5,107.5,226.2,107.5,225.7z" class="st19"/></g><g><polygon points="229.1 267.9 180.6 252.9 187.5 245.4" class="st24"/><polygon points="229.1 267.9 188.6 231.1 186.3 259.7" class="st15"/><polygon points="229.1 267.9 187.2 248.8 180.6 252.9 187.8 241.4" class="st6"/></g><g><path d="M751.7,575.1c0.6-0.2,1.2-0.3,1.8-0.4c0.2,0,0.4-0.1,0.6-0.1c2.3-0.2,4.6,0,6.8,0.4 c17.8,3.1,33.4,16.3,39.5,33.2c2.2,6,3.2,12.4,4,18.7c4.1,34.3,0.1,69.6-11.4,102.2l-15.8,2.5l-2.7,0.4l-5.3,0.8 c-0.4-13.4-1.9-26.9-6.2-39.6c-4.4-12.9-11.6-24.6-18.1-36.6s-12.5-24.6-14.1-38.1c-1.7-13.5,1.6-28.3,11.4-37.8 C744.9,578.2,748.1,576.1,751.7,575.1z" class="st6"/><path d="M708.5,603.5c0.8-0.3,1.6-0.6,2.4-0.8c3.1-0.9,6.6-1.2,10.7-0.8c38.6,3.7,49,130.3,49,130.3l-6.8,0.7 l-2.5,0.3l-10.5,1.1c0,0-19.7-29.6-39-53.9C695.1,659.3,685.8,613.2,708.5,603.5z" class="st8"/><path d="M754.2,574.6c2.5,11.4,8.9,21.8,12.8,32.9c4.9,14.2,7.6,29.3,10,44c4.4,26.5,6.1,53.8,0.3,80.2 c-0.5,2.5-1.2,4.9-1.8,7.4c-0.4,1.6-2.9,0.9-2.4-0.7c0.6-2.1,1.1-4.2,1.6-6.3c6.5-28.3,4.1-57.7-1.1-86.1 c-2.5-14-5.1-28.3-10.3-41.6c-3.9-9.8-9.1-19.1-11.4-29.3c0.6-0.2,1.2-0.3,1.8-0.4C753.7,574.7,754,574.6,754.2,574.6z" class="st25"/><path d="M723,628c6.6,11.4,12.6,23.2,17.9,35.3c9.9,22.4,17.6,45.8,22.9,69.7l-2.5,0.3 c-5.8-25.5-14.1-50.4-25.1-74.2c-5.5-11.9-11.8-23.4-18.3-34.8c-3.8-6.6-7.4-13.4-9.4-20.7c0.8-0.3,1.6-0.6,2.4-0.8 C713.4,611.7,718.4,619.9,723,628z" class="st25"/><path d="M724.6,721.8h51.5h51.5c0.9,0,1.7,1,1.7,2.2v9.6c0,1.2-0.8,2.2-1.7,2.2h-7.2c0,0-12.5,82.4-15.7,82.4 c-1.8,0-16,0-28.7,0c-12.6,0-26.9,0-28.7,0c-3.2-0.1-15.7-82.4-15.7-82.4h-7.2c-0.9,0-1.7-1-1.7-2.2V724 C723,722.8,723.7,721.8,724.6,721.8z" class="st8"/><path d="M844.5,600.6c0.8,0.4,1.5,0.9,2.3,1.4c8.1,5.5,14.8,15.9,15.8,31.9c2.3,34.3-56.9,88-56.9,88h-21.4 c0-13.5,24.5-109.2,36-120.1C826,596.4,835.8,595.8,844.5,600.6z" class="st8"/><path d="M837.8,625.8c2.7-8.3,4.8-16.8,6.7-25.3c0.8,0.4,1.5,0.9,2.3,1.4c-1.8,7.9-3.8,15.8-6.2,23.6 c-3.6,11.4-8.6,21.7-14.4,32.1c-11.6,20.8-22.8,41.9-31.5,64.1H792c8.3-21.4,18.9-41.7,30-61.8 C828.1,648.9,833.9,638,837.8,625.8z" class="st25"/></g></g></g></svg>