<svg xmlns="http://www.w3.org/2000/svg" viewBox="0 0 810.35 751.66"><defs><style>.cls-1{fill:#119d59}.cls-2{fill:#18a05e}.cls-3{fill:#20a363}.cls-4{fill:#8bcfae}.cls-5{fill:#179057}.cls-6{fill:#767676}.cls-7{fill:#777}.cls-8{fill:#178954}.cls-9{fill:#207f55}.cls-10{fill:#4eb683}.cls-11{fill:#f0f0f0}.cls-12{fill:#149e5b}.cls-13{fill:#139e5a}</style></defs><g id="Layer_2" data-name="Layer 2"><g id="Layer_1-2" data-name="Layer 1"><path d="M214.24,499.39a4.27,4.27,0,0,1-1.06-3.19q.1-62.82.18-125.63c13.42-.46,26.85.59,40.29-.85,8.53-.91,17.08-1.49,25.54-3,9.9-1.76,19.82-3.44,29.73-5.16.06,21.62.23,43.24.06,64.85,0,4.16,1,5.17,5.16,5.16q90.83-.22,181.65,0c4.11,0,5.2-.93,5.18-5.13-.15-52.05-.07-104.11-.14-156.17,0-4.08,1.84-9.36-.89-11.91-2.09-1.94-7.26-.58-11.06-.7a8.39,8.39,0,0,1-1-.13,10.84,10.84,0,0,1,3.23-5.45,257.37,257.37,0,0,0,22.36-27.65c5.66-7.85,12-15.37,15.36-24.66A34.68,34.68,0,0,1,539,207.43c3.52,3.57,7.76,5.23,12.61,4.1a37.92,37.92,0,0,1,8.85-.75c12.07,0,24.14-.36,36.17,1,0,1.66.16,3.31.16,5q0,136.67,0,273.33c0,4.64-.33,9.24-2.84,13.35a20.68,20.68,0,0,0-1.8,2.3c-7.28,12.39-18.27,18.58-32.46,18.6q-154.77.12-309.55,0c-13.77,0-24.55-6-31.88-17.89-.76-1.23-1-2.93-2.93-3a.55.55,0,0,1-.2-.67C215.15,501.52,215.43,500.27,214.24,499.39Z" class="cls-1"/><path d="M528.84,199.78c-3.37,9.29-9.7,16.81-15.36,24.66a257.37,257.37,0,0,1-22.36,27.65,10.84,10.84,0,0,0-3.23,5.45c-1.82.06-3.65.17-5.48.17q-83.88,0-167.75-.11c-4.52,0-5.71,1.08-5.69,5.65.16,32.78,0,65.55-.05,98.33-9.91,1.72-19.83,3.4-29.73,5.16-8.46,1.49-17,2.07-25.54,3-13.44,1.44-26.87.39-40.29.85-.06-6.64-.16-13.28-.16-19.91q0-81.2,0-162.38c0-1.82.1-3.65.15-5.47,9.94-.4,19.86.13,29.84-.83a170.73,170.73,0,0,0,54.32-14.9c19.84-9,36.08-22.65,51.13-38.16A158.75,158.75,0,0,0,384.27,71.5c8-22.13,10.31-45.07,9.73-68.42l58.82,0c0,33.18.38,66.38-.06,99.56C452.6,115,455.61,125.53,464,134.5a4.71,4.71,0,0,0,3,4.76c4.74,2.3,7.86,6.38,11.66,9.71a7.41,7.41,0,0,0,2.23.91c0,2.11,1.71,3.12,3,4.39,4.77,4.82,9.61,9.58,14.38,14.41Q513.55,184.21,528.84,199.78Z" class="cls-2"/><path d="M394,3.08c.58,23.35-1.71,46.29-9.73,68.42a158.75,158.75,0,0,1-35.62,57.42c-15,15.51-31.29,29.21-51.13,38.16A170.73,170.73,0,0,1,243.2,182c-10,1-19.9.43-29.84.83-.05-19.75-.14-39.5-.16-59.25q0-43.34,0-86.66a31.37,31.37,0,0,1,1.28-9.83c1.5-.18,1.5-1.49,2-2.51,6.7-13.6,17.84-21.23,32.78-21.35C297.51,2.82,345.76,3.08,394,3.08Z" class="cls-3"/><path d="M464,134.5c-8.4-9-11.41-19.51-11.25-31.82.44-33.18.1-66.38.06-99.56.14-.79.27-1.57.41-2.35,1.82.64,2.89,2.19,4.17,3.47Q525,71.79,592.56,139.38c1.27,1.26,2.93,2.27,3.37,4.21-2,.11-4,.31-6,.31-31.28,0-62.56-.2-93.84.14C484.25,144.17,473.32,142.39,464,134.5Z" class="cls-4"/><path d="M528.84,199.78q-15.3-15.56-30.62-31.1c-4.77-4.83-9.61-9.59-14.38-14.41-1.25-1.27-2.93-2.28-3-4.39a1.49,1.49,0,0,1,1.71-.65c6.86,2.1,14.13,2.37,21.05,2.37,31,0,62,1.47,93-.76v60.93c-12-1.35-24.1-1-36.17-1a37.92,37.92,0,0,0-8.85.75c-4.85,1.13-9.09-.53-12.61-4.1A34.68,34.68,0,0,0,528.84,199.78Z" class="cls-5"/><path d="M77.6,664c6.49,0,13,.29,19.47-.09,4.39-.26,5.24,1.54,5.32,5.44.49,24.29-9.86,41.44-29.68,48.75-21.53,7.94-46.86,1-61-16.6C-5,680.58-3.71,651.65,14.88,632.37A53.44,53.44,0,0,1,85,626.7c3.6,2.72,4.75,4.42.71,8-6.25,5.51-6,5.8-12.88,1.53a37.77,37.77,0,0,0-42.19,2.3A38.38,38.38,0,0,0,18,681.12c5.11,15.08,18.6,25.11,34.15,25.38,18.26.32,30.95-8.6,34.62-23.88,1-4-.33-4.42-3.72-4.35-8.49.17-17-.12-25.47.13-3.6.11-4.42-1.12-4.39-4.53.09-9.84-.06-9.85,10-9.85Z" class="cls-6"/><path d="M305.71,714.32C290.54,724.6,275.44,723,264,710.5c-11.13-12.21-11.88-31.23-1.72-44,11.33-14.25,26.15-16.53,43.56-6.32-.9-4.82,2-4.69,5.24-4.66,9,.08,9,0,9,8.76,0,18.12.1,36.24,0,54.36-.12,16.6-8.47,28.15-22.68,31.83-15.25,3.94-30.38-2.21-37.78-15.21-1.51-2.66-1.91-4.5,1.71-5.34a7.72,7.72,0,0,0,2.3-.95c4.42-2.71,7.53-3.07,11,2.35,4,6.18,10.76,7.89,18.13,6.11s11.23-6.58,12.51-13.82A27.47,27.47,0,0,0,305.71,714.32Zm-35.53-26.55c.12,11,8.71,20.13,18.8,20s17.92-8.94,18-20.14c0-11.66-8.14-20.62-18.63-20.42C278.19,667.37,270.05,676.61,270.18,687.77Z" class="cls-6"/><path d="M477.14,721.27c-14.68,0-27.45-8.82-32.22-21.11-1.19-3.09-.67-4.61,2.46-5.42a13.9,13.9,0,0,0,3.22-1.32c2.89-1.59,4.29-1.15,5.77,2.26,5.21,12,16.82,16.91,28.23,12.43,4.91-1.93,8.56-5.17,9.41-10.67.91-5.87-.77-10.83-5.64-14.54-3.77-2.87-8.12-4.45-12.52-6-4.85-1.7-9.79-3.15-14.38-5.56C451.14,665.94,446,658,447.16,647.87c1.25-10.66,7.66-17.4,17.62-20.84,14.4-5,30.63.82,37.44,13,1.7,3.05,1.6,4.76-2,5.74a18.24,18.24,0,0,0-4.15,1.68c-2.28,1.29-3.23.56-4.56-1.65a18.73,18.73,0,0,0-25.74-6.22c-8,4.72-8.45,14.29-.94,19.67,4,2.85,8.55,4.39,13.13,5.89,5.86,1.91,11.61,4,16.81,7.43,9.15,6,12.89,14.6,11.76,25.22S499,715.24,489.24,719A31.77,31.77,0,0,1,477.14,721.27Z" class="cls-7"/><path d="M141.38,721.26c-19.23.06-34-14.5-34.07-33.53,0-19.47,14.54-34.28,33.86-34.38A33.47,33.47,0,0,1,175.24,687C175.32,706.53,160.8,721.21,141.38,721.26Zm-.09-54.08c-10.66,0-18.95,8.82-19,20.19s8.47,20.35,19,20.36,19-9.11,19-20.33S151.94,667.18,141.29,667.18Z" class="cls-6"/><path d="M215.39,721.26c-19.24.1-34.1-14.45-34.16-33.44-.07-19.51,14.42-34.29,33.77-34.47a33.47,33.47,0,0,1,34.16,33.58C249.25,706.48,234.8,721.16,215.39,721.26Zm18.78-33.69c.06-11.37-8.2-20.33-18.8-20.39s-19,8.65-19.15,20c-.12,11.2,8.29,20.38,18.79,20.52S234.1,698.77,234.17,687.57Z" class="cls-6"/><path d="M385.16,721.26c-18.13-.27-32.29-13.91-33.09-31.89-.87-19.36,11.1-33.8,29.74-35.86,13.44-1.49,29.29,10.16,32.09,23.4.59,2.8-1.32,3-2.91,3.66-12.41,5.17-24.75,10.53-37.29,15.34-4.71,1.81-3.55,3.51-1.17,6.15,6.79,7.52,19.43,7.73,26.64-.19,2.88-3.16,4.57-2.88,7.67-.72,8.35,5.83,8.46,6,.43,12.5A32.74,32.74,0,0,1,385.16,721.26ZM367.29,686c8.37-3.46,16.38-6.67,24.29-10.11,1.64-.71,4.59-.58,4.41-3.09-.15-2.2-2.49-3.38-4.44-4.37C380.52,662.9,367.32,672.1,367.29,686Z" class="cls-6"/><path d="M685.66,690.15c-7,0-14,.09-21,0-2.57,0-3.52.55-3.14,3.39a19.86,19.86,0,0,0,14.08,15.92c7.48,2,14.64.89,19.39-5.46,2.85-3.81,4.88-4.13,8.8-2.18,5.5,2.74,5.63,2.47,2,7.51-7,9.7-19.44,14.08-32,11.26a30.74,30.74,0,0,1-24.09-25,38.3,38.3,0,0,1,2.92-23.84c6.67-13.87,20.89-20.22,36.34-16.3,13.16,3.34,22.32,16.88,21.69,31.62-.12,2.83-1.22,3.23-3.59,3.19C700,690.08,692.82,690.15,685.66,690.15Zm-5.53-10c4.8,0,9.6-.15,14.39.05,3.38.15,3.5-1.2,2.54-3.84-2.46-6.76-9.09-11.13-17.17-11.14-7.39,0-14.66,5.09-16.91,11.7-.78,2.29-.48,3.34,2.25,3.27C670.19,680.06,675.16,680.16,680.13,680.16Z" class="cls-6"/><path d="M618.08,690.15c-7,0-14,.1-21,0-2.7-.06-3.91.47-3.45,3.57,1.07,7.27,7.1,14,14.69,16a18.65,18.65,0,0,0,19.95-6.89c.91-1.23,1.27-3.46,3.57-2.51,2.88,1.18,6.45,1.57,8.27,4.08,1,1.33-1.22,3.53-2.35,5.11-10.33,14.25-33.22,16-46.48,3.61-15-14.06-13.21-42,3.78-53.53,10.78-7.32,22.39-7.35,33.43-.86,10.82,6.36,14.23,17,14.22,29,0,2.52-1.42,2.51-3.21,2.51C632.39,690.13,625.24,690.15,618.08,690.15Zm-5.84-10c4.64,0,9.28-.17,13.91.06,3.82.18,4.15-1.2,2.81-4.34-2.84-6.71-9.53-10.89-17.51-10.66-7.2.21-14.11,5.24-16.38,11.75-.84,2.39-.38,3.3,2.27,3.23C602.31,680.07,607.28,680.16,612.24,680.16Z" class="cls-6"/><path d="M528.85,663.85c5.58-6,11.45-9.19,18.6-9.58,14.75-.8,24.48,8.5,25.09,24.69.46,12.29.07,24.61.14,36.92,0,2.24-.55,3.16-3,3.3-9,.54-8.88.65-9-8.25-.2-11,.73-21.94-.59-32.88-.71-5.95-3.43-10.29-9.55-12-6.55-1.84-12.21-.48-16.7,4.69a20.28,20.28,0,0,0-4.94,13.76c0,10.14-.1,20.29.07,30.43.05,3.1-.6,4.34-4,4.29-8-.12-8,.08-8-7.73,0-26.44.18-52.89-.15-79.33-.07-5.42,2.74-4.8,6.1-4.81s6.44-.79,6.18,4.72C528.51,642.28,528.85,652.54,528.85,663.85Z" class="cls-6"/><path d="M785.21,721.29c-11-.06-19.52-4.53-25.39-13.95-1.71-2.74-2.21-4.83,1.74-5.77a11.07,11.07,0,0,0,2.74-1.18c2.73-1.53,4.43-1.29,6.28,1.79,4.13,6.85,11,9.53,18.91,7.86,4.08-.87,7.66-2.68,8.13-7.49.5-5-2.9-7.15-6.94-8.37s-8.36-2.12-12.54-3.17c-4.73-1.18-9.19-2.89-12.86-6.25-6.71-6.16-7.27-15.47-1.34-22.32,10.09-11.65,33.58-10.78,42.55,1.68,1.12,1.55,4.21,4.25.82,5.5-3,1.1-6.16,6.32-10.19,1.14-4.62-5.93-14.19-7.52-20.82-3.72-2.49,1.42-4.07,3.34-3.86,6.41a5.93,5.93,0,0,0,4.48,5.42c4.1,1.32,8.32,2.24,12.49,3.33l2.41.61c12.69,3.17,19.4,10.43,18.44,20-1.06,10.53-10,17.78-22.55,18.4Z" class="cls-7"/><path d="M330.06,669.38c0-15.13.09-30.27-.07-45.41,0-3.28.95-4.2,4.21-4.2,10.85,0,10.85-.16,10.85,10.47,0,28-.05,55.9.07,83.85,0,3.58-.42,5.27-4.72,5.15-10.33-.29-10.34,0-10.34-10.43Z" class="cls-6"/><path d="M745.55,720.26c-13.5.08-20.64-6.92-20.78-20.51-.09-9.31-.15-18.62.05-27.93.08-3.37-.75-4.67-4.37-4.57-6.57.2-8.22-2.38-6.69-9,.67-2.87,2.78-1.83,4.37-1.88,6.62-.21,6.62-.15,6.62-6.65a50,50,0,0,0,0-6.48c-.62-4.56.65-6.25,5.75-6.25,5.26,0,6.92,1.47,6.41,6.61-.39,3.92-1.31,8.94.6,11.63,2.13,3,7.44,1.06,11.31,1,5.46-.09,3.32,3.73,3.64,6.23.35,2.79.35,5-3.85,5-11.8.07-11.8.27-11.8,11.92,0,6.49-.2,13,.08,19.45.36,8.47,3.21,11,11.62,10,3.65-.46,3.26,2.16,4,3.79,3,6.84,2.68,7.18-4.9,7.57Z" class="cls-7"/><path d="M215.29,503.38c1.91.11,2.17,1.81,2.93,3,7.33,11.84,18.11,17.88,31.88,17.89q154.77.15,309.55,0c14.19,0,25.18-6.21,32.46-18.6a20.68,20.68,0,0,1,1.8-2.3c-.36,6.16-4.31,10.37-8.36,14.21a34.81,34.81,0,0,1-24.84,9.77q-155.91-.09-311.81,0C233.53,527.36,219.37,517.23,215.29,503.38Z" class="cls-8"/><path d="M596.61,150.84c-31,2.23-62,.73-93,.76-6.92,0-14.19-.27-21.05-2.37a1.49,1.49,0,0,0-1.71.65,7.41,7.41,0,0,1-2.23-.91c-3.8-3.33-6.92-7.41-11.66-9.71a4.71,4.71,0,0,1-3-4.76c9.31,7.89,20.24,9.67,32.12,9.54,31.28-.34,62.56-.12,93.84-.14,2,0,4-.2,6-.31C597.51,145.88,596.6,148.41,596.61,150.84Z" class="cls-9"/><path d="M453.23.77c-.14.78-.27,1.56-.41,2.35L394,3.08c-48.24,0-96.49-.26-144.73.13-14.94.12-26.08,7.75-32.78,21.35-.5,1-.5,2.33-2,2.51C217.43,12.46,231.83.13,246.85.1Q348.4-.09,450,0C451.08,0,452.31-.24,453.23.77Z" class="cls-10"/><path d="M214.24,499.39c1.19.88.91,2.13.85,3.32C213.74,501.88,214.27,500.57,214.24,499.39Z" class="cls-8"/><path d="M308.92,361.58c.06-32.78.21-65.55.05-98.33,0-4.57,1.17-5.67,5.69-5.65q83.88.24,167.75.11c1.83,0,3.66-.11,5.48-.17a8.39,8.39,0,0,0,1,.13c3.8.12,9-1.24,11.06.7,2.73,2.55.89,7.83.89,11.91.07,52.06,0,104.12.14,156.17,0,4.2-1.07,5.14-5.18,5.13q-90.82-.21-181.65,0c-4.15,0-5.2-1-5.16-5.16C309.15,404.82,309,383.2,308.92,361.58Zm53.85-49.94c8.82,0,17.64-.07,26.46.05,2.57,0,3.93-.28,3.84-3.41-.22-7.82-.14-15.64,0-23.46,0-2.29-.54-3.21-3-3.2q-27,.15-53.93,0c-2.45,0-3.1.83-3.06,3.16.11,7.48.21,15,0,22.46-.12,3.41.69,4.6,4.32,4.48C345.78,311.45,354.28,311.64,362.77,311.64Zm83.89,0c8.82,0,17.64-.15,26.46.08,3.15.08,3.93-.89,3.85-3.93-.21-7.64-.14-15.3,0-23,0-2.27-.5-3.22-3-3.2q-27,.14-53.93,0c-2.42,0-3.11.79-3.08,3.14.13,7.65.25,15.32,0,23-.14,3.56,1.31,4,4.31,4C429.68,311.53,438.17,311.64,446.66,311.64Zm-83.24,18c-9,0-18,.07-27-.05-2.51,0-3.51.55-3.45,3.28q.27,11.73,0,23.47c-.06,2.7.88,3.32,3.43,3.31q26.46-.15,52.93,0c2.71,0,3.77-.6,3.7-3.54q-.3-11.47,0-23c.08-2.92-.91-3.63-3.68-3.58C380.73,329.72,372.07,329.61,363.42,329.62Zm83.27,30c8.82,0,17.64-.08,26.46.05,2.59,0,3.91-.32,3.82-3.43-.22-7.81-.14-15.64,0-23.46,0-2.31-.57-3.19-3-3.17q-27,.14-53.93,0c-2.48,0-3.08.86-3,3.17.11,7.82.18,15.65,0,23.47-.09,3.11,1.25,3.45,3.82,3.41C429.38,359.5,438,359.58,446.69,359.58Zm-83.46,18c-8.82,0-17.64.09-26.46-.05-2.64,0-3.86.43-3.78,3.47.21,7.65.19,15.32,0,23-.07,2.82.75,3.66,3.61,3.64q26.46-.19,52.93,0c3,0,3.56-1.05,3.51-3.73q-.23-11.49,0-23c.05-2.6-.69-3.43-3.35-3.39C380.88,377.65,372.06,377.55,363.23,377.55Zm83.95,0c-8.82,0-17.64.08-26.46-.05-2.58,0-3.91.32-3.82,3.42.22,7.82.14,15.64,0,23.46,0,2.32.58,3.18,3,3.17q27-.13,53.93,0c2.47,0,3.08-.86,3-3.17-.11-7.82-.19-15.65,0-23.46.08-3.11-1.24-3.46-3.82-3.42C464.49,377.64,455.84,377.56,447.18,377.56Z" class="cls-11"/><path d="M362.77,311.64c-8.49,0-17-.19-25.47.09-3.63.12-4.44-1.07-4.32-4.48.25-7.48.15-15,0-22.46,0-2.33.61-3.17,3.06-3.16q27,.14,53.93,0c2.49,0,3.06.91,3,3.2-.11,7.82-.19,15.64,0,23.46.09,3.13-1.27,3.45-3.84,3.41C380.41,311.57,371.59,311.64,362.77,311.64Z" class="cls-2"/><path d="M446.66,311.64c-8.49,0-17-.11-25.47.05-3,.06-4.45-.4-4.31-4,.29-7.64.17-15.31,0-23,0-2.35.66-3.15,3.08-3.14q27,.14,53.93,0c2.51,0,3,.93,3,3.2-.11,7.66-.18,15.32,0,23,.08,3-.7,4-3.85,3.93C464.3,311.49,455.48,311.64,446.66,311.64Z" class="cls-12"/><path d="M363.42,329.62c8.65,0,17.31.1,26-.07,2.77-.05,3.76.66,3.68,3.58q-.3,11.47,0,23c.07,2.94-1,3.56-3.7,3.54q-26.48-.17-52.93,0c-2.55,0-3.49-.61-3.43-3.31q.25-11.73,0-23.47c-.06-2.73.94-3.32,3.45-3.28C345.44,329.69,354.43,329.62,363.42,329.62Z" class="cls-12"/><path d="M446.69,359.58c-8.66,0-17.31-.08-26,0-2.57,0-3.91-.3-3.82-3.41.21-7.82.14-15.65,0-23.47,0-2.31.56-3.18,3-3.17q27,.14,53.93,0c2.47,0,3.07.86,3,3.17-.11,7.82-.19,15.65,0,23.46.09,3.11-1.23,3.46-3.82,3.43C464.33,359.5,455.51,359.58,446.69,359.58Z" class="cls-13"/><path d="M363.23,377.55c8.83,0,17.65.1,26.47-.06,2.66,0,3.4.79,3.35,3.39q-.24,11.49,0,23c.05,2.68-.53,3.75-3.51,3.73q-26.46-.19-52.93,0c-2.86,0-3.68-.82-3.61-3.64.18-7.65.2-15.32,0-23-.08-3,1.14-3.51,3.78-3.47C345.59,377.64,354.41,377.55,363.23,377.55Z" class="cls-13"/><path d="M447.18,377.56c8.66,0,17.31.08,26-.05,2.58,0,3.9.31,3.82,3.42-.22,7.81-.14,15.64,0,23.46,0,2.31-.57,3.18-3,3.17q-27-.13-53.93,0c-2.46,0-3.08-.85-3-3.17.11-7.82.19-15.64,0-23.46-.09-3.1,1.24-3.46,3.82-3.42C429.54,377.64,438.36,377.56,447.18,377.56Z" class="cls-1"/></g></g></svg>